<svg width="15" height="15" viewBox="0 0 15 15" fill="none" xmlns="http://www.w3.org/2000/svg">
<path d="M8.06223 10.3808C8.06223 9.92688 8.30755 9.85704 8.72811 10.1015C9.49913 10.5205 10.3402 10.9744 10.3402 10.9744C10.3753 10.73 10.5856 10.5205 11.0412 10.6252C11.4617 10.73 11.9524 10.8348 11.9524 10.8348C11.9524 10.8348 11.7071 10.2411 11.5669 9.99671C11.3566 9.50785 11.5669 9.29834 11.7772 9.22851C11.7772 9.22851 11.4968 9.01899 11.2865 8.87932C10.8659 8.59997 10.9711 8.28571 11.3566 8.11111C11.9173 7.86668 12.6183 7.55242 12.6183 7.55242C12.408 7.41274 12.1276 7.06356 12.443 6.64454C12.7234 6.22551 13.144 5.66682 13.144 5.66682H11.8823C11.4267 5.66682 11.3215 5.28271 11.3215 5.03828C11.3215 5.03828 10.5856 5.56206 10.0599 5.91125C9.60427 6.22551 9.21876 5.91125 9.28885 5.38747C9.39399 4.58434 9.49913 3.67646 9.49913 3.67646C9.21876 3.85105 8.76316 3.85105 8.55288 3.39711C8.20241 2.8035 7.8169 2.00037 7.8169 2.00037C7.8169 2.00037 7.46644 2.76858 7.15102 3.43203C6.94074 3.88597 6.45009 3.88597 6.20477 3.71138C6.20477 3.71138 6.30991 4.61926 6.41505 5.42239C6.48514 5.94616 6.06458 6.22551 5.64402 5.94616C5.11833 5.59698 4.38235 5.0732 4.38235 5.0732C4.38235 5.31763 4.27721 5.70173 3.82161 5.70173H2.55994C2.55994 5.70173 2.9805 6.29535 3.26087 6.67945C3.54124 7.09847 3.29591 7.44766 3.08564 7.58733C3.08564 7.58733 3.78656 7.9016 4.34731 8.14603C4.76786 8.32062 4.873 8.59997 4.4174 8.91424C4.20712 9.05391 3.92675 9.26342 3.92675 9.26342C4.13703 9.33326 4.34731 9.54277 4.13703 10.0316C4.03189 10.2761 3.75152 10.8697 3.75152 10.8697C3.75152 10.8697 4.24217 10.7649 4.66272 10.6602C5.11833 10.5554 5.36365 10.7649 5.36365 11.0093C5.36365 11.0093 6.16972 10.5554 6.94074 10.1364C7.3613 9.89196 7.60662 9.99671 7.60662 10.4157V11.4633C7.60662 12.0918 7.50149 12.7902 7.25616 13.1394C4.24217 12.8251 1.75387 10.4507 1.75387 7.30799C1.75387 4.06056 4.48749 1.40676 7.8169 1.40676C11.1814 1.40676 13.8799 4.02565 13.8799 7.27307C13.8799 10.311 11.5318 12.7902 8.48279 13.1045V13.9076C12.0575 13.5933 14.8262 10.73 14.8262 7.27307C14.8612 3.60662 11.7071 0.63855 7.8169 0.63855C3.9618 0.63855 0.807617 3.60662 0.807617 7.30799C0.807617 10.5554 3.22582 13.2441 6.48514 13.8377C7.04588 13.9425 7.3613 14.0123 7.67672 14.3615C8.02718 13.733 8.09727 12.4061 8.09727 11.6379V10.3808H8.06223Z" fill="white"/>
</svg>
