<svg width="87" height="9" viewBox="0 0 87 9" fill="none" xmlns="http://www.w3.org/2000/svg">
<path d="M16.4148 7.86964V0.746261H19.8844C21.7418 0.746261 22.5829 1.51447 22.618 2.52711C22.653 2.98105 22.5479 3.43499 22.2325 3.78417C21.9171 4.13336 21.7769 4.27303 21.1811 4.55238L23.8096 7.86964H21.847L19.5339 4.93648H17.9568V7.86964H16.4148ZM17.9919 3.95877H18.6928C20.6203 3.95877 21.0059 3.6445 21.0059 2.7017C21.0059 1.79382 20.1647 1.65414 18.9031 1.65414H17.9568V3.95877H17.9919ZM0.749023 7.86964L3.86816 0.746261H5.76066L8.84475 7.86964H6.91719L6.07608 5.94912H2.78172L1.9406 7.86964H0.749023ZM3.20227 5.00632H5.69057L4.46394 2.17792L3.20227 5.00632ZM11.0877 0.746261H12.7699V7.86964H11.0877V0.746261ZM35.8305 7.62521C35.0244 7.93948 34.0431 8.07915 32.8866 8.07915C31.4847 8.07915 30.3633 7.72997 29.5922 7.06651C28.7862 6.40306 28.4007 5.46026 28.4007 4.27303C28.4007 3.05088 28.7862 2.143 29.5922 1.47955C30.3983 0.816098 31.5198 0.501831 32.9917 0.501831C33.938 0.501831 34.8842 0.606587 35.7954 0.781179V1.93349C34.7441 1.61922 33.7628 1.47955 33.0618 1.47955C32.1506 1.47955 31.4497 1.72398 30.959 2.17792C30.4684 2.66678 30.2231 3.33023 30.2231 4.23811C30.2231 5.11108 30.4684 5.77453 31.0291 6.26339C31.5548 6.75225 32.2908 6.99668 33.2371 6.99668C34.0782 6.99668 35.0244 6.82208 35.8655 6.4729V7.62521H35.8305ZM37.8632 7.86964L40.9823 0.746261H42.8748L45.9589 7.86964H44.0314L43.1902 5.94912H39.8959L39.0548 7.86964H37.8632ZM40.3164 5.00632H42.8047L41.5781 2.17792L40.3164 5.00632ZM58.5055 7.86964L61.6247 0.746261H63.5172L66.6013 7.86964H64.6737L63.8326 5.94912H60.5382L59.6971 7.86964H58.5055ZM60.9588 5.00632H63.4471L62.2205 2.17792L60.9588 5.00632ZM78.0965 7.86964L81.2156 0.746261H83.1081L86.1922 7.86964H84.2647L83.4235 5.94912H80.1292L79.2881 7.86964H78.0965ZM80.5497 5.00632H83.038L81.8114 2.17792L80.5497 5.00632ZM50.2696 0.746261L54.7556 5.80945V0.746261H56.1224V7.86964H54.3701L49.7089 2.52711V7.86964H48.3421V0.746261H50.2696ZM68.9844 7.86964V0.746261H72.454C73.6806 0.746261 74.6269 1.06053 75.2928 1.61922C75.9587 2.21284 76.2741 3.05088 76.2741 4.13336C76.2741 5.32059 75.9236 6.22847 75.2227 6.857C74.5218 7.52045 73.5405 7.83472 72.2788 7.83472H68.9844V7.86964ZM70.6316 6.857H71.8582C72.7344 6.857 73.3652 6.64749 73.8208 6.22847C74.2414 5.80945 74.4517 5.146 74.4867 4.27303C74.4867 3.60958 74.3115 3.01596 73.961 2.56202C73.7157 2.24776 73.4353 2.03825 73.1199 1.89857C72.7694 1.79382 72.3138 1.72398 71.6479 1.72398H70.6316V6.857Z" fill="white"/>
</svg>
