<svg width="77" height="8" viewBox="0 0 77 8" fill="none" xmlns="http://www.w3.org/2000/svg">
<path d="M11.0223 7.19628V0.310147H13.0412V7.19628H11.0223ZM57.5622 7.19628L52.7133 3.10723V7.19628H51.009V0.310147H52.4568L57.2414 4.33517V0.310147H58.9457V7.19628H57.5622ZM68.1075 2.53194C67.1951 2.08492 66.1684 1.72281 64.8065 1.72281C63.1806 1.72281 61.9681 2.56018 61.9681 3.72454C61.9681 4.91824 63.2018 5.76228 64.7918 5.76228C66.1039 5.76228 67.1453 5.4284 68.1721 4.83932V6.54341C67.2657 6.9911 66.061 7.32409 64.7067 7.32409C61.9397 7.32409 59.765 5.91833 59.765 3.72476C59.765 1.56631 61.9828 0.181885 64.6998 0.181885C65.9826 0.181885 67.1453 0.423293 68.1075 0.813858V2.53194ZM24.2711 7.19628V0.310147H31.016V1.78616H26.2882V3.4978H30.9093V4.9747H26.2882V7.19628H24.2711ZM69.327 7.19628V0.310147H76.3288V1.78616H71.3449V2.97964H76.2498V4.45587H71.3449V5.71937H76.3074V7.1965H69.327V7.19628ZM38.0248 4.61259L40.8135 7.19628H38.6595C38.1822 7.19628 37.8683 7.04734 37.6183 6.80593L35.7222 4.9747C35.686 4.93869 35.6293 4.91824 35.5581 4.91824H34.2675V7.19628H32.2493V0.310147H36.621C38.8875 0.310147 39.8439 1.32468 39.8439 2.44725C39.8435 3.75277 38.674 4.37763 38.0248 4.61259ZM36.4134 3.47624C37.2122 3.47624 37.5975 3.07122 37.5975 2.61753C37.5975 2.16294 37.2553 1.78616 36.4134 1.78616H34.2673V3.47624H36.4134ZM20.7062 4.61259L23.4937 7.19628H21.3407C20.8625 7.19628 20.5488 7.04734 20.2994 6.80593L18.4024 4.9747C18.3674 4.93869 18.3096 4.91824 18.2383 4.91824H16.9486V7.19628H14.9297V0.310147H19.3012C21.5686 0.310147 22.5241 1.32468 22.5241 2.44725C22.5239 3.75277 21.3545 4.37763 20.7062 4.61259ZM19.0947 3.47624C19.8926 3.47624 20.278 3.07122 20.278 2.61753C20.278 2.16294 19.9357 1.78616 19.0947 1.78616H16.9486V3.47624H19.0947ZM7.86487 7.19628L6.97989 5.68448H3.11582L2.3101 7.19628H0.384766L4.23432 0.317038H5.98842L10.3524 7.19628H7.86487ZM3.88538 4.25048H6.13823L4.96883 2.14827L3.88538 4.25048ZM48.1576 7.19628L47.2943 5.68448H43.53L42.7527 7.19628H40.8773L44.6282 0.317038H46.3316L50.5743 7.19628H48.1576ZM44.2855 4.25048H46.4817L45.3408 2.14827L44.2855 4.25048Z" fill="white"/>
</svg>
