<svg width="36" height="20" viewBox="0 0 36 20" fill="none" xmlns="http://www.w3.org/2000/svg">
<path fill-rule="evenodd" clip-rule="evenodd" d="M7.17267 0.337064C7.66489 -0.112355 8.44283 -0.112355 8.93505 0.337064L15.7172 6.5295C16.2236 6.99184 16.2396 7.7566 15.7529 8.23765C15.2662 8.7187 14.4612 8.73387 13.9549 8.27153L9.32552 4.04474L9.32552 18.1212C9.32552 18.7884 8.75618 19.3293 8.05386 19.3293C7.35154 19.3293 6.7822 18.7884 6.7822 18.1212L6.7822 4.04474L2.15285 8.27153C1.64649 8.73387 0.841473 8.7187 0.354806 8.23765C-0.131862 7.7566 -0.115893 6.99184 0.390473 6.5295L7.17267 0.337064Z" fill="#113B75"/>
<path fill-rule="evenodd" clip-rule="evenodd" d="M26.5023 18.9922C26.9945 19.4416 27.7724 19.4416 28.2646 18.9922L35.0468 12.7998C35.5532 12.3374 35.5692 11.5727 35.0825 11.0916C34.5958 10.6106 33.7908 10.5954 33.2845 11.0578L28.6551 15.2845L28.6551 1.2081C28.6551 0.540901 28.0858 2.47955e-05 27.3834 2.47955e-05C26.6811 2.47955e-05 26.1118 0.540901 26.1118 1.2081L26.1118 15.2845L21.4824 11.0578C20.9761 10.5954 20.1711 10.6106 19.6844 11.0916C19.1977 11.5727 19.2137 12.3374 19.7201 12.7998L26.5023 18.9922Z" fill="#113B75"/>
</svg>
