<svg width="57" height="21" viewBox="0 0 57 21" fill="none" xmlns="http://www.w3.org/2000/svg">
<path d="M23.8468 2.35969C23.8468 2.8115 22.4151 4.00057 22.3312 4.0676C22.23 3.58198 21.8596 3.06284 20.7984 1.99106L22.3649 0.43396C23.4092 1.47223 23.8468 1.70651 23.8468 2.35969ZM7.42541 19.6901H4.89913C4.1076 19.6901 4.17501 19.0372 4.09074 18.4843V14.9012C4.09074 14.9012 4.64662 14.8844 5.26961 14.8844C5.96032 14.8844 6.83612 14.7839 7.67821 15.2528C7.4639 14.8025 7.12153 14.4245 6.69345 14.1657C6.26536 13.9068 5.77035 13.7783 5.26961 13.7962H4.1076V12.6406C4.1076 12.6406 4.1076 11.6359 3.85479 11.3513H5.52212C6.9541 11.3513 8.06555 11.3346 9.22757 12.088C9.22757 12.088 9.00877 10.1961 6.22998 10.1961H0.806641C0.806641 10.1961 1.74956 10.9998 1.71585 12.6239L1.74956 19.1542C1.74956 20.7954 2.40656 20.8454 2.40656 20.8454H7.74563C8.95821 20.8454 9.37925 19.9914 9.37925 19.5228L9.39611 18.9032C9.39611 18.9032 9.00877 19.6901 7.42541 19.6901ZM21.6405 19.1374V14.5664C21.6405 12.7914 20.1919 12.3223 19.0973 12.3223C17.6656 12.3223 17.2277 13.5113 17.0427 13.9299C16.7224 12.825 15.5941 12.3226 14.6846 12.3226C12.9499 12.3226 12.5117 13.9635 12.5117 13.9635C12.5117 13.9635 12.4783 12.3728 11.0803 12.3728H9.71603C9.71603 12.3728 10.5076 12.6909 10.5076 14.064V19.1374C10.5076 20.8118 11.1814 20.8454 11.1814 20.8454H13.4383C12.8993 20.4435 12.5794 19.8071 12.5794 19.1207V14.6166C12.6131 14.4156 12.9496 13.7459 13.9096 13.7459C14.4655 13.7459 15.072 14.315 15.0551 14.9515V19.1374C15.0551 20.8286 15.729 20.8454 15.729 20.8454H17.9856C17.4468 20.4268 17.1266 19.8071 17.1266 19.1207V14.6166C17.2322 14.2995 17.4599 14.0369 17.7598 13.8862C18.0597 13.7355 18.4074 13.7091 18.7268 13.8127C19.2322 13.9802 19.5858 14.4323 19.6026 14.9682V19.1374C19.6195 20.8453 20.2762 20.8286 20.2762 20.8286H22.5334C22.2631 20.6346 22.0418 20.3809 21.8869 20.0874C21.7319 19.794 21.6476 19.4688 21.6405 19.1374ZM25.5816 19.1374C25.5821 19.4688 25.6599 19.7955 25.8089 20.0919C25.958 20.3882 26.1742 20.6462 26.4405 20.8454H24.1836C24.1836 20.8454 23.4932 20.8621 23.4932 19.1542V14.0472C23.4932 12.7077 22.7185 12.3561 22.7185 12.3561H24.0828C24.5709 12.3561 25.5647 12.3561 25.5647 14.248V19.1042L25.5816 19.1374ZM32.5205 13.009C32.5205 13.009 32.3018 12.4064 31.3754 12.4064C29.9609 12.4064 29.6238 14.0808 29.6238 14.0808C29.5058 12.7579 29.1522 12.3728 28.1584 12.3728H26.7941C26.7941 12.3728 27.5857 12.6909 27.5857 14.064V19.1374C27.5857 20.8118 28.2598 20.8454 28.2598 20.8454H30.5164C30.2501 20.6462 30.0339 20.3882 29.8849 20.0919C29.7358 19.7955 29.658 19.4688 29.6575 19.1374V14.9682C29.7081 14.6166 29.9103 14.2983 30.2134 14.1143C30.9712 13.6119 31.965 13.7627 32.5543 14.4491L32.5205 13.009ZM43.0136 13.3106C43.4849 13.3106 43.9397 13.4276 44.3439 13.6454V12.3728H42.4577V10.4304C42.0535 11.0668 41.5314 11.6362 40.9418 12.1215C40.3019 12.6406 38.9545 13.2938 38.9545 13.2938L40.3862 13.3106V19.2045C40.3862 20.8453 41.0766 20.8454 41.0766 20.8454H43.3167C43.0523 20.6547 42.8357 20.4059 42.6838 20.1184C42.5319 19.8309 42.4487 19.5124 42.4409 19.1877V13.3106H43.0136ZM49.8515 15.8724C48.5883 17.1785 47.5946 16.9774 46.8027 17.9487C46.8027 17.9487 46.9379 19.2547 47.9313 19.7068C48.2684 19.8576 49.6661 20.36 50.5587 18.8194V20.1925C50.5587 20.1925 49.9863 20.8621 48.1504 20.8621C45.9441 20.8621 44.4281 19.1374 44.4281 16.7934C44.4281 14.4826 45.6579 12.3561 47.9987 12.3393C50.2725 12.3058 51.5188 14.1478 49.8515 15.8724ZM48.4704 15.3365C48.8408 14.6502 49.1442 12.9087 47.8642 13.009C46.382 13.1263 46.6682 17.0277 46.6682 17.0277C47.1567 16.4921 47.8976 16.3748 48.4704 15.3365ZM24.5375 11.6865C25.11 11.6694 25.5479 11.2005 25.5479 10.6482C25.531 10.0788 25.0594 9.64343 24.5035 9.64343C23.9479 9.66018 23.4932 10.1123 23.4932 10.6649C23.4932 11.234 23.9648 11.6861 24.5375 11.6861V11.6865ZM34.8617 19.8744C34.3564 19.8744 33.9859 19.3385 33.9859 18.8026C33.9859 16.6929 35.7207 16.3916 36.1923 15.8389V19.4055C35.9735 19.5731 35.7712 19.8744 34.862 19.8744H34.8617ZM36.1923 15.0182C35.6701 15.9227 31.5945 16.1235 32.2175 19.2547C32.4703 20.4938 33.2955 20.8621 34.3396 20.8621C35.3502 20.8621 35.9735 20.3433 36.226 19.8409C36.3777 20.7786 36.8661 20.8454 36.8661 20.8454H39.1228C38.584 20.4435 38.247 19.8241 38.247 19.1542V14.3824C38.247 13.2439 36.9838 12.3564 35.6364 12.3564C34.8869 12.3394 34.1508 12.556 33.5312 12.9758V14.4494C33.5312 14.4494 34.0028 13.2774 35.1648 13.2774C36.3103 13.2774 36.3945 13.8465 36.3945 14.1313C36.4114 14.4326 36.3608 14.7507 36.1923 15.0188V15.0182ZM54.8369 18.5348C54.8538 19.1374 54.3147 19.9247 53.1696 19.9247C51.9904 19.9247 51.5188 18.7356 51.5188 18.7356V20.2427C52.1589 20.6446 52.9002 20.8454 53.6577 20.8454C55.1905 20.8454 56.7567 19.6901 56.723 18.0657C56.7065 17.5327 56.5242 17.018 56.2012 16.5923C55.679 15.9059 54.7355 15.4203 53.9948 14.9682C53.5735 14.7169 53.3547 14.248 53.3547 14.0975C53.3378 13.8127 53.4895 13.2436 54.6178 13.2436C55.7296 13.2436 56.218 14.4156 56.218 14.4156V12.9922C55.5947 12.5569 54.8366 12.3226 54.0619 12.3226C52.7145 12.3226 51.4851 13.21 51.5188 14.3485C51.5357 15.3533 51.9567 15.9897 52.7819 16.6091C53.1529 16.8744 53.5412 17.1149 53.9443 17.329C54.5841 17.6809 54.8201 18.1159 54.8369 18.5348Z" fill="white"/>
</svg>
