<svg width="25" height="35" viewBox="0 0 25 35" fill="none" xmlns="http://www.w3.org/2000/svg">
<path fill-rule="evenodd" clip-rule="evenodd" d="M13.4762 29.1126L16.3136 24.7739C16.3136 24.7739 17.1409 22.9821 19.2797 22.9821H22.2888L24.3846 26.3066C24.3846 26.3066 22.7292 26.134 21.9877 27.3213L18.893 32.005C18.893 32.005 17.8826 34.1961 15.1852 34.1961H0.612366L6.15785 25.6482C6.15785 25.6482 6.94183 24.6448 5.84586 22.9826L0.912941 15.0176C0.912941 15.0176 -0.30129 13.8415 0.955734 11.8233L2.39637 9.63198L9.25282 20.7913C9.25282 20.7913 10.4671 22.324 9.25282 24.1588L4.10491 32.2207H14.9594C14.9594 32.2207 16.1845 32.4473 17.2377 30.8716L19.9351 26.7059C19.9351 26.7059 20.5476 25.3026 21.9019 24.7307H19.7203C19.7203 24.7307 18.581 24.7739 17.7107 26.1337L15.3144 29.8572C15.3144 29.8572 14.4435 31.4329 12.5197 31.4329H8.7261L13.3042 24.2989C13.3042 24.2989 15.7978 21.0075 14.046 17.9853L6.45842 5.38004C6.45842 5.38004 5.88917 4.28958 6.54452 3.27517L8.19912 0.781982L16.8398 14.7585C16.8398 14.7585 18.1083 16.8524 18.1083 18.471C18.1083 20.0899 17.0981 21.9247 16.5387 22.8529L12.7345 28.8105C12.7345 28.8105 12.3047 29.3824 12.6058 29.5983C12.9173 29.814 13.2184 29.4254 13.4762 29.1123" fill="white"/>
</svg>
