<svg width="62" height="16" viewBox="0 0 62 16" fill="none" xmlns="http://www.w3.org/2000/svg">
<path fill-rule="evenodd" clip-rule="evenodd" d="M32.2546 9.04733H33.598V14.3897H36.8758V15.5338H32.2543V9.04733M37.9075 15.5338H39.2399V9.04733H37.9075V15.5338ZM21.5506 15.5338H22.8724V9.04733H21.5506V15.5338ZM48.7723 9.04733H53.8346V10.1159H50.1157V11.7025H53.2755V12.8789H50.1157V14.4546H53.8346V15.5338H48.7723V9.04733ZM55.8977 0.327293H60.9597V1.39562H57.2416V2.97128H60.4117V4.14768H57.2416V5.72334H60.9597V6.79166H55.8977V0.327293ZM24.9251 15.5338V9.04733H28.7618C28.7618 9.04733 30.6101 9.07962 30.6101 10.936C30.6101 10.936 30.7821 12.4794 29.2133 13.1052L31.1584 15.5336H29.5033L26.8165 12.1661H28.2138C28.2138 12.1661 29.2133 12.1447 29.2133 11.1303C29.2133 10.1696 28.4073 10.094 28.1601 10.094H26.2685V15.5336H24.9251M48.536 6.79192V0.327032H52.3727C52.3727 0.327032 54.2213 0.359066 54.2213 2.216C54.2213 2.216 54.3823 3.74791 52.8242 4.374L54.7693 6.7914H53.1144L50.4276 3.44606H51.8247C51.8247 3.44606 52.8242 3.42444 52.8242 2.40977C52.8242 1.43833 52.0184 1.37348 51.7713 1.37348H49.8797V6.79192H48.536ZM21.6473 5.66943H23.4632V2.70172H24.7529V6.79166H21.3677C20.8625 6.79166 18.4232 6.21974 18.4017 3.64034C18.3801 1.08283 20.6048 0.327293 21.4645 0.327293H24.7853V1.47114H21.7871C21.7871 1.47114 19.7772 1.47114 19.7772 3.59711C19.7772 5.2483 21.443 5.66917 21.6471 5.66917M40.9918 9.04733H42.3461V10.0513L43.1952 9.04759H44.7963C44.7963 9.04759 46.9885 8.92883 46.9885 11.2816V15.5338H45.6239V11.0762C45.6239 11.0762 45.5808 10.1912 44.6565 10.1912H42.3461V15.5336H40.9918V9.04733ZM11.1798 0.327293H12.5232V1.31983L13.372 0.327293H14.9734C14.9734 0.327293 17.1765 0.208532 17.1765 2.56108V6.79166H15.8114V2.35664C15.8114 2.35664 15.7579 1.47166 14.8337 1.47166H12.5229V6.79192H11.1798V0.327293ZM7.99873 6.79192H9.32059V0.326772H7.99873V6.79192ZM55.3069 15.5232V14.4223H59.0466C59.0466 14.4223 59.7883 14.5624 59.7883 13.6558C59.7883 12.7495 59.2294 12.8466 59.0256 12.8466H56.8653C56.8653 12.8466 55.1995 12.9651 55.1995 11.0011C55.1995 9.04759 56.8437 9.04759 56.8437 9.04759H60.9488V10.1914H57.3484C57.3484 10.1914 56.5639 10.1914 56.5639 10.9363C56.5639 11.6812 57.0906 11.821 57.5849 11.821H59.509C59.509 11.821 61.1317 11.6483 61.1317 13.591C61.1317 15.5338 59.4659 15.5232 59.4659 15.5232H55.3069ZM0.755347 6.79192V5.69105H4.49504C4.49504 5.69105 5.23675 5.83142 5.23675 4.92483C5.23675 4.01824 4.67762 4.11539 4.47351 4.11539H2.31321C2.31321 4.11539 0.647461 4.23389 0.647461 2.28059C0.647461 0.316354 2.29194 0.327293 2.29194 0.327293H6.3973V1.47114H2.79688C2.79688 1.47114 2.01237 1.47114 2.01237 2.216C2.01237 2.96008 2.54998 3.10071 3.0334 3.10071H4.95718C4.95718 3.10071 6.57988 2.92804 6.57988 4.85972C6.57988 6.80208 4.91413 6.7914 4.91413 6.7914H0.755087" fill="white"/>
</svg>
