<svg width="642" height="301" viewBox="0 0 642 301" fill="none" xmlns="http://www.w3.org/2000/svg">
<g clip-path="url(#clip0_831_2633)">
<path d="M34.1542 122.348C34.1542 122.348 34.3488 122.059 34.3488 121.673C34.3488 121.191 33.765 120.902 32.9866 120.902C30.9432 120.902 29.2891 123.312 29.2891 126.012C29.2891 133.918 39.5059 137.485 56.1447 137.485C74.1458 137.485 90.0062 135.557 106.742 131.893C125.911 127.747 161.135 118.685 169.406 117.238C168.141 120.034 163.081 134.303 159.772 150.308C157.145 163.227 155.005 178.364 155.005 187.909C155.005 208.348 162.302 209.505 165.513 209.505C168.724 209.505 178.163 203.431 178.163 178.075C178.163 157.732 173.59 150.404 172.616 148.573C171.643 146.837 170.67 146.644 169.892 146.644C168.141 146.644 166.292 148.573 166.292 148.573L166.097 150.694C166.097 150.694 167.557 150.886 168.335 150.886C169.114 150.886 175.438 158.889 175.438 180.485C175.438 194.754 169.989 207.191 165.708 207.191C162.205 207.191 160.843 202.853 160.843 198.032C160.843 193.212 163.081 174.315 166.292 153.972C169.503 133.629 172.811 123.216 173.103 121.77C173.395 120.324 173.784 119.263 174.173 118.492C174.563 117.624 175.146 116.66 175.633 116.371C175.438 115.696 174.465 115.021 172.519 115.021C165.708 115.021 127.857 124.18 106.353 127.265C84.8491 130.351 61.1072 134.689 49.9173 134.689C38.7275 134.689 30.9432 131.7 30.9432 126.012C31.2351 121.384 33.5704 122.156 34.1542 122.348Z" fill="white"/>
<path d="M148.096 148.186C148.096 148.186 155.685 150.597 164.442 150.597C173.2 150.597 178.551 149.247 182.833 147.222C188.671 144.426 200.055 133.242 205.602 123.312C210.272 114.924 210.467 108.753 210.467 104.608C210.467 100.462 209.883 98.5338 206.769 98.5338C203.656 98.5338 202.488 101.04 202.001 103.451C201.515 105.861 196.942 127.265 194.023 144.426C191.103 161.588 191.298 168.24 191.298 171.132C191.298 174.892 191.882 176.146 193.341 176.146C195.385 176.146 199.374 170.843 203.169 163.419C206.185 157.538 211.537 141.534 211.537 141.534L212.316 143.462C212.316 143.462 206.964 160.527 204.045 166.119C200.737 172.289 197.428 178.46 192.466 178.46C190.228 178.46 187.601 177.688 186.336 175.953C184.779 173.832 184.584 170.361 184.584 166.119C184.584 158.599 186.919 141.823 190.617 126.011C194.315 110.2 198.79 95.7378 206.38 95.7378C210.661 95.7378 212.024 98.4373 212.024 103.065C212.024 107.693 210.564 116.659 207.256 123.215C204.045 129.771 194.606 142.594 188.963 146.162C183.319 149.729 171.643 153.489 165.221 153.489C158.799 153.489 150.82 152.043 149.36 151.368C147.901 150.693 148.096 148.186 148.096 148.186Z" fill="white"/>
<path d="M216.985 145.101C215.137 151.272 213.093 161.588 213.191 167.469C213.191 170.554 213.483 174.314 214.65 174.314C216.888 174.314 220.586 167.855 223.505 162.263C226.035 157.442 231.484 146.933 231.484 146.933L230.802 150.886C230.802 150.886 228.078 157.539 224.867 164.191C221.072 172.097 217.667 177.207 213.191 177.207C211.439 177.207 209.493 176.628 208.52 175.375C207.061 173.639 207.061 169.879 207.061 165.059C207.061 157.731 211.147 142.305 211.536 141.052C212.12 140.859 212.51 140.666 213.093 140.666C215.234 140.57 218.153 141.341 216.985 145.101Z" fill="white"/>
<path d="M216.693 133.627C220.293 133.627 221.948 131.024 221.948 126.878C221.948 124.082 221.072 123.214 218.737 123.214C217.666 123.214 216.109 123.504 215.039 124.95C213.871 126.492 213.482 128.517 213.482 130.156C213.288 132.759 215.234 133.627 216.693 133.627Z" fill="white"/>
<path d="M251.334 144.137C251.334 144.137 252.112 142.69 251.334 141.244C250.555 139.798 248.804 137.773 243.452 137.773C237.711 137.773 232.943 141.919 229.343 151.271C227.105 157.056 226.521 162.262 226.521 166.215C226.521 173.542 231.581 176.049 235.863 176.049C240.241 176.049 243.647 171.229 246.663 166.119C249.777 161.009 252.696 153.392 252.696 153.392V156.381C252.696 161.202 252.112 168.625 248.609 183.473C244.62 200.538 241.02 214.711 241.02 214.711C241.02 214.711 241.798 215.289 242.576 215.289C243.258 215.289 243.939 214.614 244.133 213.939C244.912 212.011 251.139 198.995 255.226 181.738C258.534 167.758 259.41 157.924 259.41 153.392C259.41 150.018 256.588 148.957 254.934 148.957C253.766 148.957 253.085 149.15 252.891 149.247C252.793 149.536 252.501 150.114 252.307 150.403C251.626 151.56 247.734 158.888 245.009 163.419C242.285 167.951 239.56 172.386 236.446 172.386C234.111 172.386 233.527 169.59 233.527 164.383C233.527 160.045 235.96 147.222 237.614 144.329C239.268 141.437 241.701 140.473 243.939 140.473C246.274 140.666 249.582 141.919 251.334 144.137Z" fill="white"/>
<path d="M274.783 102.004C275.464 100.558 276.437 99.6899 277.41 99.6899C278.091 99.6899 278.967 99.9792 279.259 100.172C279.454 100.558 279.356 104.221 278.091 111.645C276.924 118.876 273.129 144.425 272.448 158.212C272.253 162.744 272.253 167.564 272.448 171.517C272.448 171.517 275.172 161.683 278.87 154.356C282.178 147.703 285 144.233 286.459 142.786C287.919 141.34 289.768 140.955 291.616 140.955C294.925 140.955 296.384 144.425 296.384 148.475C296.384 150.885 294.925 166.118 294.925 168.336C294.925 170.553 295.119 171.903 296.092 171.903C297.649 171.903 301.541 167.95 304.558 162.455C307.477 156.959 310.493 146.546 311.174 142.786L312.829 144.425C312.147 147.607 310.201 154.356 308.645 158.212C307.088 162.165 305.434 165.54 302.32 170.071C299.595 174.12 296.287 176.338 293.66 176.338C292.2 176.338 290.449 175.952 289.573 174.795C288.211 173.06 288.114 170.071 288.114 166.504C288.114 160.141 289.962 150.692 289.962 149.246C289.962 147.8 289.573 146.354 288.503 146.354C287.335 146.354 286.849 146.45 286.265 146.546C285.681 146.932 281.594 152.717 278.675 159.466C275.853 166.118 273.713 173.542 273.518 174.795C272.642 175.277 272.059 175.374 271.183 175.374C269.431 175.374 267.388 174.602 266.901 172.963C266.318 170.842 266.123 166.118 266.123 157.152C266.123 140.858 270.891 118.587 272.642 109.62C273.421 105.089 274.005 103.546 274.783 102.004Z" fill="white"/>
<path d="M314.873 115.213C313.413 124.468 309.716 147.8 309.716 161.78C309.716 168.722 310.3 171.421 312.148 173.446C313.413 174.796 315.165 175.181 317.111 175.181C320.03 175.181 324.409 170.939 326.257 168.24C329.858 162.937 332.679 158.213 337.253 146.643L336.377 144.136C333.458 151.078 331.22 156.092 328.885 160.141C325.479 166.119 321.295 172 317.014 172C315.554 172 315.457 170.843 315.457 168.625C315.457 157.923 318.765 128.71 320.614 111.645C320.711 110.488 320.808 108.753 320.711 107.693C320.419 107.403 319.835 107.21 319.349 107.21C318.57 107.21 317.597 107.403 316.722 108.849C315.943 109.91 315.165 113.574 314.873 115.213Z" fill="white"/>
<path d="M297.26 131.699C297.26 131.699 296.968 129.867 298.622 129.288C300.276 128.71 315.456 123.214 315.456 123.214L315.164 128.035C313.802 128.806 310.396 130.06 306.796 130.831C302.806 131.602 297.26 131.699 297.26 131.699Z" fill="white"/>
<path d="M317.792 124.855C317.792 124.855 323.143 126.205 327.23 127.169C331.317 128.133 336.377 128.711 336.377 130.35C336.377 131.99 334.43 131.604 332.679 131.507C330.928 131.315 317.694 130.061 317.694 130.061L317.792 124.855Z" fill="white"/>
<path d="M336.182 140.087C333.652 150.5 332.387 161.202 331.122 172.193C329.565 186.365 329.662 193.789 329.662 202.273C329.662 208.926 330.246 211.818 331.9 211.818C332.29 211.818 332.776 211.529 333.165 211.143C333.457 209.312 334.722 198.61 335.598 190.125C336.571 180.581 336.474 183.184 337.057 177.11C337.641 171.036 341.241 140.473 341.533 138.063C341.631 136.713 341.631 135.845 341.533 135.074C341.241 134.785 340.658 134.592 340.268 134.592C339.003 134.592 338.03 135.074 337.252 136.713C336.863 137.388 336.474 138.641 336.182 140.087Z" fill="white"/>
<path d="M327.425 150.308C326.841 149.826 326.647 148.765 327.522 147.704C328.203 146.74 335.501 140.956 345.815 140.956C355.546 140.956 360.216 148.765 360.216 156.285C360.216 161.877 358.562 166.601 353.989 171.808C349.805 176.532 348.637 177.207 347.761 177.689C347.372 177.882 346.886 178.267 346.496 178.267C345.718 178.267 345.232 177.785 345.037 176.917C349.707 169.879 353.21 165.637 353.21 155.707C353.21 151.079 350.875 144.137 344.453 144.137C336.572 144.234 331.998 147.222 327.425 150.308Z" fill="white"/>
<path d="M405.073 140.473C408.576 140.473 409.743 142.112 409.743 144.233C409.743 146.837 407.505 157.924 407.505 165.444C407.505 167.758 407.505 170.843 407.602 172.675C408.284 168.24 410.424 161.106 413.051 154.839C416.262 147.222 420.641 140.184 423.949 140.184C425.701 140.184 427.258 141.052 427.258 142.787C427.258 143.944 426.771 145.969 426.382 146.451C425.604 146.354 424.436 146.258 423.463 146.258C420.933 146.258 419.182 147.415 417.722 149.729C413.538 156.478 410.911 164.576 408.77 174.989C408.284 175.182 407.602 175.278 407.019 175.278C405.948 175.278 403.808 174.893 403.029 174.121C401.472 172.579 401.862 167.276 401.862 161.588C401.862 154.646 402.737 144.812 403.905 140.763C404.294 140.57 404.586 140.473 405.073 140.473Z" fill="white"/>
<path d="M442.924 107.597C443.021 108.85 442.924 110.489 442.729 111.839C440.394 130.736 437.572 152.718 437.572 165.348C437.572 169.879 438.35 172.771 439.81 172.771C441.561 172.771 444.091 169.301 446.524 164.673C449.151 159.756 450.902 155.996 452.946 150.307L453.14 153.393C451.486 158.502 450.319 161.491 447.594 166.697C444.675 172.097 442.243 175.085 439.032 175.085C436.599 175.085 434.945 174.218 434.069 172.964C432.804 171.422 431.831 166.408 431.831 160.431C431.831 151.079 434.458 131.796 436.599 117.913C436.988 115.502 437.475 112.321 438.448 109.91C439.323 107.789 440.783 107.018 441.853 107.018C442.34 107.018 442.632 107.211 442.924 107.597Z" fill="white"/>
<path d="M436.306 123.214C436.306 123.214 423.365 126.878 421.03 128.035C419.959 128.613 418.986 128.517 418.986 129.867C418.986 130.831 419.278 131.313 419.667 131.602C420.932 131.409 423.56 130.927 425.506 130.542C428.23 129.963 433.679 128.806 435.917 128.228L436.306 123.214Z" fill="white"/>
<path d="M440.297 123.986C442.535 124.468 446.622 125.529 451.487 126.686C454.309 127.361 456.158 127.264 457.423 128.228C458.687 129.193 458.59 130.446 456.449 130.446C454.99 130.446 450.806 129.964 446.719 129.385C443.022 128.903 441.173 128.614 440.103 128.421L440.297 123.986Z" fill="white"/>
<path d="M495.273 155.514C488.657 166.794 482.527 174.507 478.051 174.507C473.283 174.507 471.532 172.097 471.532 166.891C471.532 165.445 472.018 160.045 472.31 157.249C471.434 159.371 469.391 163.42 467.737 166.409C464.915 171.422 461.899 174.7 458.201 174.7C453.53 174.7 449.541 172.097 449.541 164.77C449.541 160.817 450.417 156.092 451.974 152.043C455.671 142.788 461.899 138.545 466.083 138.545C470.072 138.545 472.31 139.895 473.186 141.341C473.575 142.016 473.478 142.788 472.991 143.366C472.018 142.595 469.877 141.438 466.958 141.438C463.65 141.438 461.12 142.884 459.758 145.776C458.006 149.44 456.45 157.635 456.45 162.841C456.45 168.723 457.325 171.036 460.05 171.036C461.801 171.036 464.526 168.144 467.445 162.938C470.656 157.346 472.602 153.682 474.353 148.476C474.645 148.379 475.034 148.283 475.618 148.283C478.245 148.283 479.51 149.054 479.51 151.465C479.51 154.164 477.759 160.527 477.759 169.205C477.759 170.844 478.148 171.808 479.413 171.808C482.527 171.808 488.462 164.191 494.787 152.236L495.273 155.514Z" fill="white"/>
<path d="M495.176 156.478C499.75 148.957 503.836 141.051 506.074 135.46C511.621 121.962 514.637 111.356 514.637 104.511C514.637 99.112 513.177 96.8945 509.48 96.8945C503.155 96.8945 497.901 105.572 493.23 127.843C489.63 144.908 489.436 151.85 489.436 161.973C489.436 172 494.106 174.314 497.901 174.314C501.696 174.314 508.702 168.625 512.594 162.744C516.486 156.863 522.324 147.704 522.421 146.643C522.519 145.583 522.032 144.619 522.032 144.619C522.032 144.619 516.291 153.199 511.621 159.466C506.853 165.83 500.82 171.614 498.679 171.614C496.441 171.614 495.566 170.65 495.566 165.926C495.566 161.202 498.485 135.267 501.015 120.901C503.739 105.379 505.88 99.6905 508.604 99.6905C511.329 99.6905 512.691 101.233 512.691 106.343C512.691 113.767 509.869 121.865 505.782 132.471C504.128 136.809 498.971 147.415 494.787 154.26L495.176 156.478Z" fill="white"/>
<path d="M369.266 146.836C367.417 150.403 365.082 156.574 365.082 162.841C365.082 172.578 371.018 176.82 376.953 176.82C381.137 176.82 383.764 175.181 386.878 172.289C391.743 167.758 395.733 160.43 395.733 153.296C395.733 150.5 393.105 149.536 391.257 149.536C390.381 149.536 389.602 149.825 389.213 150.018C389.213 150.982 389.31 152.717 388.727 157.152C387.754 165.154 383.959 173.832 378.023 173.832C374.326 173.832 371.893 172.482 371.893 163.901C371.893 154.26 375.202 142.112 381.332 142.112C384.543 142.112 386.197 142.883 387.948 144.426C388.435 143.654 388.824 142.787 387.851 141.726C386.489 140.376 384.251 139.123 380.553 139.123C376.175 139.123 371.893 141.63 369.266 146.836Z" fill="white"/>
<path d="M391.061 154.645C395.245 151.56 400.596 145.679 403.807 140.858L404.878 142.69C401.569 147.8 396.315 153.585 391.255 157.056L391.061 154.645Z" fill="white"/>
<path d="M348.733 171.615C355.252 166.698 364.204 154.357 370.237 145.294V149.055C364.496 157.346 355.642 168.337 347.857 174.218L348.733 171.615Z" fill="white"/>
</g>
<defs>
<clipPath id="clip0_831_2633">
<rect width="641.13" height="301" fill="white"/>
</clipPath>
</defs>
</svg>
