<svg width="1062" height="119" viewBox="0 0 1062 119" fill="none" xmlns="http://www.w3.org/2000/svg">
<path d="M97.8368 64.6758L93.829 70.4498C93.3012 71.2092 92.4448 71.9407 91.4111 72.0194V72.1966H95.8688C97.0521 72.1966 97.9152 71.4295 98.4999 70.5845L102.615 64.676H97.8368V64.6758Z" fill="white"/>
<path d="M97.8368 64.6758L93.829 70.4489C93.3012 71.2092 92.4448 71.9407 91.4111 72.0192V72.1964H95.8688C97.0521 72.1964 97.9152 71.4292 98.4999 70.5843L102.615 64.6758H97.8368Z" fill="url(#paint0_linear_424_3882)"/>
<path d="M24.0222 72.1964V65.3102H26.0411V72.1964H24.0222ZM70.5621 72.1964L65.7132 68.1073V72.1964H64.0089V65.3102H65.4567L70.2412 69.3353V65.3102H71.9456V72.1964H70.5621ZM81.1074 67.532C80.195 67.085 79.1683 66.7229 77.8064 66.7229C76.1805 66.7229 74.968 67.5603 74.968 68.7246C74.968 69.9183 76.2017 70.7624 77.7917 70.7624C79.1037 70.7624 80.1452 70.4285 81.1719 69.8394V71.5435C80.2655 71.9912 79.0609 72.3242 77.7066 72.3242C74.9396 72.3242 72.7649 70.9184 72.7649 68.7248C72.7649 66.5664 74.9827 65.182 77.6997 65.182C78.9825 65.182 80.1452 65.4234 81.1074 65.8139V67.532ZM37.271 72.1964V65.3102H44.0159V66.7862H39.2881V68.4979H43.9092V69.9748H39.2881V72.1964H37.271ZM82.3268 72.1964V65.3102H89.3287V66.7862H84.3448V67.9797H89.2497V69.456H84.3448V70.7195H89.3073V72.1966H82.3268V72.1964ZM51.0247 69.6127L53.8134 72.1964H51.6594C51.1821 72.1964 50.8682 72.0474 50.6182 71.806L48.7221 69.9748C48.6859 69.9388 48.6292 69.9183 48.558 69.9183H47.2674V72.1964H45.2491V65.3102H49.6209C51.8874 65.3102 52.8438 66.3248 52.8438 67.4473C52.8433 68.7529 51.6739 69.3777 51.0247 69.6127ZM49.4133 68.4763C50.2121 68.4763 50.5974 68.0713 50.5974 67.6176C50.5974 67.163 50.2551 66.7862 49.4133 66.7862H47.2671V68.4763H49.4133ZM33.7061 69.6127L36.4936 72.1964H34.3405C33.8623 72.1964 33.5487 72.0474 33.2993 71.806L31.4023 69.9748C31.3673 69.9388 31.3094 69.9183 31.2382 69.9183H29.9485V72.1964H27.9296V65.3102H32.3011C34.5685 65.3102 35.524 66.3248 35.524 67.4473C35.5238 68.7529 34.3544 69.3777 33.7061 69.6127ZM32.0946 68.4763C32.8925 68.4763 33.2779 68.0713 33.2779 67.6176C33.2779 67.163 32.9356 66.7862 32.0946 66.7862H29.9485V68.4763H32.0946ZM20.8647 72.1964L19.9798 70.6846H16.1157L15.31 72.1964H13.3846L17.2342 65.3171H18.9883L23.3522 72.1964H20.8647ZM16.8853 69.2506H19.1381L17.9687 67.1484L16.8853 69.2506ZM61.1575 72.1964L60.2942 70.6846H56.5299L55.7525 72.1964H53.8772L57.6281 65.3171H59.3315L63.5742 72.1964H61.1575ZM57.2854 69.2506H59.4815L58.3407 67.1484L57.2854 69.2506Z" fill="white"/>
<path d="M938.49 70.1939C939.234 67.4019 938.386 64.4762 936.359 62.9258C933.597 64.6739 932.005 67.961 932.58 71.3857C932.769 72.5178 933.18 73.5583 933.758 74.4699C935.917 73.8688 937.816 72.7306 938.49 70.1939M942.218 78.251C946.776 77.4858 949.849 73.1704 949.083 68.6141C948.446 64.8215 945.354 62.0577 941.708 61.6759C940.972 61.5986 940.212 61.6195 939.445 61.7477C938.561 61.8956 937.707 62.1852 936.916 62.6053C940.933 63.9679 943.093 66.0388 943.243 68.1611C943.316 69.4712 942.707 70.4188 941.907 71.1912L947.588 70.7945C947.748 70.7834 947.799 70.9708 947.604 71.0266L934.056 74.911C935.435 76.8106 937.577 78.0743 939.955 78.3229C940.709 78.4019 941.47 78.3777 942.218 78.2511M941.76 61.1769C946.222 61.6417 949.702 65.4122 949.704 69.9967C949.705 74.8955 945.735 78.8688 940.835 78.8705C935.936 78.8721 931.963 74.9021 931.962 70.0027C931.96 65.1034 935.93 61.13 940.829 61.1283C941.143 61.1283 941.454 61.1455 941.76 61.1769Z" fill="white"/>
<path d="M995.651 73.4798V70.5629H992.726V73.4798H991.121V66.532H992.726V69.2998H995.651V66.5321H997.268V73.4798H995.651ZM961.054 66.5321V70.8817C961.054 71.3624 961.125 71.7785 961.264 72.1166C961.403 72.452 961.604 72.731 961.862 72.9454C962.123 73.1621 962.437 73.3217 962.796 73.4201C963.16 73.5207 963.572 73.572 964.019 73.572C964.465 73.572 964.873 73.5207 965.23 73.4201C965.581 73.3217 965.881 73.1626 966.121 72.9477C966.361 72.7333 966.55 72.4543 966.681 72.1183C966.814 71.7812 966.88 71.3652 966.88 70.8817V66.5321H965.378V70.8352C965.378 71.2735 965.269 71.6276 965.055 71.8873C964.836 72.152 964.487 72.2863 964.019 72.2863C963.559 72.2863 963.213 72.1525 962.99 71.8884C962.771 71.6293 962.66 71.2751 962.66 70.8353V66.5321H961.054ZM956.424 73.4808V67.8294H954.536V66.5322H959.928V67.1543C959.928 67.5267 959.626 67.8295 959.253 67.8295H958.029V73.4809L956.424 73.4808ZM982.226 66.5315H983.832V73.4792H982.226V66.5315ZM976.879 70.2396L976.933 70.3087L978.984 72.9515C979.245 73.288 979.639 73.4814 980.065 73.4814H981.343L978.405 69.744L978.362 69.6887L978.405 69.634L980.821 66.5293H979.15L976.935 69.5241L976.879 69.5965L976.878 69.471V66.5293H975.273V73.4775H976.878V70.3634L976.879 70.2396ZM969.969 69.712H970.905C971.242 69.712 971.499 69.6191 971.668 69.4373C971.835 69.2572 971.92 69.0229 971.92 68.7417C971.92 68.4533 971.837 68.2162 971.674 68.0361C971.509 67.8526 971.25 67.7603 970.905 67.7603H969.969V69.712ZM973.18 73.4786C972.704 73.4786 972.256 73.2261 972.01 72.8195L970.761 70.7568H969.969V73.4786H968.364V66.5321H971.225C971.96 66.5321 972.536 66.7238 972.936 67.1023C973.335 67.4797 973.537 67.9969 973.537 68.6389C973.537 68.9649 973.45 69.2953 973.279 69.6208C973.11 69.9407 972.81 70.2027 972.388 70.3988L972.295 70.4419L974.244 73.4786H973.18ZM985.149 73.1847V71.8524C985.66 72.0879 986.319 72.3227 987 72.3227C987.783 72.3227 988.181 72.0542 988.181 71.5392C988.181 70.9348 987.647 70.8678 986.58 70.4087C985.853 70.0844 985.161 69.5805 985.161 68.4168C985.161 67.0625 986.194 66.4243 987.625 66.4243C988.385 66.4243 989.033 66.6033 989.396 66.7376V68.0361C989.033 67.8681 988.385 67.6664 987.738 67.6664C987.034 67.6664 986.705 67.9239 986.705 68.3715C986.705 68.8417 987.103 68.9875 987.818 69.2561C988.737 69.7147 989.805 69.9164 989.805 71.4834C989.805 72.8377 988.726 73.5765 987.284 73.5765C986.398 73.5765 985.695 73.4195 985.149 73.1847ZM1034.74 73.4792V66.5309H1039.09V67.1613C1039.09 67.5294 1038.79 67.8282 1038.43 67.8282H1036.35V69.3229H1038.68V70.4827H1036.35V72.1823H1039.09V73.4791L1034.74 73.4792ZM1018.87 73.4786V66.531H1019.65C1020.1 66.531 1020.48 66.9012 1020.48 67.356V72.2271H1023.04V73.4787L1018.87 73.4786ZM1008.93 73.4775V66.5343H1010.54L1010.54 73.4775H1008.93ZM1013.61 69.7109H1014.55C1014.89 69.7109 1015.14 69.6186 1015.31 69.4367C1015.48 69.2561 1015.57 69.0224 1015.57 68.7406C1015.57 68.4527 1015.48 68.2151 1015.32 68.035C1015.15 67.8521 1014.89 67.7593 1014.55 67.7593H1013.61L1013.61 69.7109ZM1016.82 73.4775C1016.35 73.4775 1015.9 73.225 1015.65 72.8189L1014.41 70.7563H1013.61V73.4775H1012.01V66.5315H1014.87C1015.61 66.5315 1016.18 66.7232 1016.58 67.1018C1016.98 67.4791 1017.18 67.9963 1017.18 68.6383C1017.18 68.9644 1017.1 69.2948 1016.92 69.6202C1016.76 69.9396 1016.46 70.2015 1016.03 70.3982L1015.94 70.4413L1017.89 73.4776L1016.82 73.4775ZM1003.41 70.9474L1004.04 69.1914C1004.18 68.7964 1004.32 68.3792 1004.42 68.072H1004.44C1004.52 68.3903 1004.66 68.7854 1004.8 69.1914L1005.41 70.9474H1003.41ZM1005.4 66.5304H1003.55L1000.93 73.4786H1002.09C1002.38 73.4786 1002.64 73.2913 1002.73 73.0129L1003 72.1973H1005.82L1006.23 73.4786H1007.97L1005.4 66.5304ZM1040.38 73.1847V71.8531C1040.89 72.0879 1041.55 72.3227 1042.23 72.3227C1043.02 72.3227 1043.42 72.0542 1043.42 71.5392C1043.42 70.9348 1042.88 70.8678 1041.81 70.4093C1041.09 70.0844 1040.39 69.581 1040.39 68.4168C1040.39 67.0625 1041.43 66.4243 1042.86 66.4243C1043.62 66.4243 1044.27 66.6033 1044.63 66.7376V68.0361C1044.27 67.8687 1043.62 67.667 1042.97 67.667C1042.27 67.667 1041.94 67.9245 1041.94 68.372C1041.94 68.8416 1042.34 68.9876 1043.05 69.2561C1043.97 69.7147 1045.04 69.9164 1045.04 71.4834C1045.04 72.8377 1043.96 73.5765 1042.52 73.5765C1041.63 73.5765 1040.93 73.4195 1040.38 73.1847ZM1027.15 66.5321H1028.14C1028.61 66.5321 1029.05 66.7757 1029.3 67.1769L1031.24 70.2899C1031.46 70.6358 1031.71 71.0927 1031.86 71.4161H1031.9C1031.87 71.1038 1031.86 70.669 1031.86 70.3568V66.5322H1033.27V73.4792H1031.51L1029.15 69.7209C1028.93 69.3755 1028.7 68.9628 1028.54 68.6506H1028.52C1028.53 68.9517 1028.55 69.3087 1028.55 69.643V73.4792H1027.15V66.5321ZM1024.07 73.4775V66.5343H1025.68V73.4775H1024.07Z" fill="white"/>
<path d="M329.184 37.8451C328.728 38.4299 328.479 39.148 328.477 39.8879V46.3009C328.443 46.7865 328.258 47.2386 327.954 47.6237C327.786 47.7913 326.792 48.6787 326.708 48.7793L327.264 48.796C327.449 48.6285 329.369 46.9373 329.554 46.703C330.11 46.1001 330.43 45.3132 330.43 44.4927V38.3308C330.422 38.0197 330.476 37.7103 330.589 37.42C330.702 37.1298 330.871 36.8646 331.087 36.6396C331.323 36.3883 332.064 35.7689 332.199 35.6181L331.609 35.6013C331.491 35.7521 329.386 37.6441 329.184 37.8451ZM324.451 61.1699L326.792 63.1962H328.359C329.857 63.1962 331.306 62.6101 332.367 61.5553C333.327 60.6008 333.681 59.3112 333.681 58.1057V54.7737C333.664 54.0203 333.344 53.3001 332.771 52.798C332.67 52.6974 331.98 52.0443 331.98 52.0443V54.6061C331.98 54.6061 332.738 55.3766 332.872 55.5271C333.563 56.2641 333.563 57.6036 331.357 59.7301C330.969 60.0982 329.875 61.1364 328.359 61.1364L324.451 61.1699Z" fill="white"/>
<path d="M330.969 47.4903C330.717 47.7581 330.464 48.428 330.464 49.0306V50.2864H331.744C332.25 50.2864 332.906 49.8346 333.041 49.6V48.3439C333.231 48.6192 333.464 48.8623 333.732 49.0638C333.866 48.8963 335.045 47.49 336.022 47.4732C337.656 47.4565 337.285 49.5159 336.628 50.1691C336.41 50.3867 335.45 51.2574 335.146 51.5419C334.371 52.2789 333.041 51.9273 333.041 50.0351C333.041 50.0351 331.626 51.3747 331.407 51.5587C331.188 51.743 330.464 52.5132 330.464 52.5132V55.8455C330.464 57.4361 329.942 57.972 329.504 58.4576C329.335 58.6416 327.534 60.2828 327.281 60.4668L326.691 60.4836C326.691 60.4836 327.752 59.5291 327.955 59.3116C328.19 59.0602 328.477 58.5579 328.477 57.7207C328.477 57.5031 328.443 52.4964 328.443 52.4964H320.224C317.361 52.4964 316.754 49.3487 316.737 48.4944V45.3303C316.737 44.8111 316.401 43.9404 315.879 43.6726H316.687C316.788 43.7058 317.293 43.9069 317.293 45.8491C317.293 45.8491 317.26 48.0932 317.26 48.2269C317.26 49.2149 318.051 50.3367 319.18 50.3367L328.477 50.3199C328.477 50.0686 328.729 49.1312 329.184 48.6288C329.437 48.3442 331.441 46.5358 331.66 46.3518H332.249C332.165 46.4356 331.188 47.2892 330.986 47.5238L330.969 47.4903ZM334.018 49.3822C334.259 49.7082 334.523 50.0161 334.81 50.3032C335.82 51.1069 336.292 50.2362 335.618 49.3319C335.348 48.9639 334.321 49.0641 334.018 49.3822H334.018Z" fill="white"/>
<path d="M324.047 55.3431C324.047 55.795 322.616 56.984 322.531 57.0511C322.431 56.5654 322.06 56.0463 320.999 54.9745L322.565 53.4174C323.626 54.4724 324.047 54.707 324.047 55.3431ZM326.776 37.4433C327.096 37.7614 327.769 38.5986 327.365 39.0172C327.06 39.3225 326.757 39.6294 326.456 39.9382C326.422 39.7371 325.9 39.235 325.9 39.235V40.9262C325.883 41.6126 325.63 41.7969 325.63 41.7969C325.63 41.7969 326.894 43.0356 326.894 44.6433V46.2842C326.901 46.4381 326.876 46.592 326.821 46.7361C326.766 46.8802 326.682 47.0114 326.574 47.1217C326.456 47.2554 325.294 48.4277 325.108 48.5782C324.839 48.8128 324.502 48.9466 324.148 48.9298H319.787C319.096 48.9298 318.389 48.3942 318.389 47.8583C318.389 47.7243 318.405 46.251 318.405 46.251C318.624 46.502 318.86 46.8033 319.399 46.8033C319.837 46.8033 320.275 46.4685 320.393 46.3345C320.511 46.2007 323.694 42.9186 323.694 42.9186C323.694 42.9186 322.212 41.5456 321.235 40.8927C320.763 40.5746 320.123 40.9765 320.022 41.395C319.719 42.7011 320.022 44.6768 320.022 44.6768L318.827 43.488C318.338 43.0024 318.355 41.9142 318.944 41.3448C319.028 41.2442 319.921 40.273 321.033 40.273H322.768C323.93 40.273 325.21 41.4286 325.21 41.4286C325.311 41.3113 325.378 41.1772 325.395 41.0264C325.395 40.4238 325.378 38.8332 325.378 38.8332C324.502 37.9625 324.384 37.0583 324.805 36.6397C325.597 35.8527 325.883 35.5846 325.883 35.5846C325.883 35.5846 325.85 36.5391 326.776 37.4433H326.776ZM321.302 46.1504C320.864 46.6022 320.797 46.7031 320.392 46.9541H325.31C326.641 46.9541 326.372 46.1337 326.136 45.7151C325.647 44.8611 324.098 43.287 324.098 43.287C324.098 43.287 321.386 46.0667 321.302 46.1504Z" fill="white"/>
<path d="M315.693 50.6042H314.885C314.885 50.6042 315.744 51.0731 315.744 52.2953V56.1968C315.744 58.7251 317.849 61.0695 320.409 61.0695H322.548C323.828 61.0695 324.283 60.7679 325.058 60.0815C325.344 59.8301 325.715 59.4115 325.849 59.261C326.287 58.7583 326.776 58.3568 326.776 57.0507V55.7782C326.776 54.6729 326.136 54.2208 325.816 53.9027C325.57 53.6615 325.323 53.4216 325.075 53.1828V55.7949C325.075 55.7949 325.613 56.364 325.849 56.5484C326.961 57.4191 326.085 58.9262 325.041 58.9262H320.342C318.624 58.9594 316.283 57.4358 316.283 54.8569V52.7475C316.3 50.6042 315.693 50.6042 315.693 50.6042H315.693Z" fill="white"/>
<path d="M320.847 55.3598C320.847 55.8116 319.415 57.0006 319.331 57.0677C319.23 56.582 318.86 56.0629 317.799 54.9911L319.365 53.434C320.409 54.4723 320.847 54.7066 320.847 55.3598ZM304.426 72.6901H301.899C301.108 72.6901 301.175 72.0373 301.091 71.4843V67.9013C301.091 67.9013 301.647 67.8845 302.27 67.8845C302.961 67.8845 303.836 67.784 304.678 68.2528C304.464 67.8025 304.122 67.4246 303.694 67.1657C303.266 66.9069 302.771 66.7784 302.27 66.7963H301.108V65.6407C301.108 65.6407 301.108 64.6359 300.855 64.3514H302.522C303.954 64.3514 305.066 64.3346 306.228 65.0881C306.228 65.0881 306.009 63.1961 303.23 63.1961H297.807C297.807 63.1961 298.75 63.9998 298.716 65.6239L298.75 72.1543C298.75 73.7954 299.407 73.8454 299.407 73.8454H304.746C305.958 73.8454 306.379 72.9915 306.379 72.5229L306.396 71.9032C306.396 71.9032 306.009 72.6901 304.426 72.6901ZM318.641 72.1375V67.5664C318.641 65.7915 317.192 65.3223 316.098 65.3223C314.666 65.3223 314.228 66.5114 314.043 66.93C313.723 65.825 312.594 65.3226 311.685 65.3226C309.95 65.3226 309.512 66.9635 309.512 66.9635C309.512 66.9635 309.478 65.3729 308.08 65.3729H306.716C306.716 65.3729 307.508 65.691 307.508 67.0641V72.1375C307.508 73.8119 308.182 73.8454 308.182 73.8454H310.439C309.899 73.4436 309.58 72.8071 309.58 72.1207V67.6167C309.613 67.4156 309.95 66.746 310.91 66.746C311.466 66.746 312.072 67.3151 312.055 67.9515V72.1375C312.055 73.8287 312.729 73.8454 312.729 73.8454H314.986C314.447 73.4268 314.127 72.8071 314.127 72.1207V67.6167C314.232 67.2996 314.46 67.0369 314.76 66.8863C315.06 66.7356 315.408 66.7091 315.727 66.8127C316.232 66.9803 316.586 67.4324 316.603 67.9683V72.1375C316.62 73.8454 317.276 73.8287 317.276 73.8287H319.534C319.263 73.6346 319.042 73.3809 318.887 73.0875C318.732 72.794 318.648 72.4689 318.641 72.1375ZM322.582 72.1375C322.582 72.4688 322.66 72.7956 322.809 73.0919C322.958 73.3883 323.174 73.6462 323.441 73.8454H321.184C321.184 73.8454 320.493 73.8622 320.493 72.1543V67.0473C320.493 65.7077 319.719 65.3561 319.719 65.3561H321.083C321.571 65.3561 322.565 65.3562 322.565 67.2481V72.1043L322.582 72.1375ZM329.521 66.009C329.521 66.009 329.302 65.4064 328.376 65.4064C326.961 65.4064 326.624 67.0808 326.624 67.0808C326.506 65.758 326.152 65.3729 325.159 65.3729H323.794C323.794 65.3729 324.586 65.691 324.586 67.0641V72.1375C324.586 73.8119 325.26 73.8454 325.26 73.8454H327.517C327.25 73.6462 327.034 73.3883 326.885 73.0919C326.736 72.7956 326.658 72.4688 326.658 72.1375V67.9683C326.708 67.6167 326.91 67.2983 327.214 67.1143C327.971 66.6119 328.965 66.7627 329.554 67.4491L329.521 66.009ZM340.014 66.3106C340.485 66.3106 340.94 66.4276 341.344 66.6455V65.3729H339.458V63.4304C339.054 64.0668 338.532 64.6362 337.942 65.1216C337.302 65.6407 335.955 66.2939 335.955 66.2939L337.386 66.3106V72.2045C337.386 73.8454 338.077 73.8454 338.077 73.8454H340.317C340.052 73.6547 339.836 73.4059 339.684 73.1184C339.532 72.8309 339.449 72.5124 339.441 72.1878V66.3106H340.014ZM346.852 68.8725C345.589 70.1786 344.595 69.9775 343.803 70.9487C343.803 70.9487 343.938 72.2548 344.932 72.7069C345.269 72.8577 346.666 73.3601 347.559 71.8194V73.1925C347.559 73.1925 346.986 73.8622 345.151 73.8622C342.944 73.8622 341.428 72.1375 341.428 69.7935C341.428 67.4827 342.658 65.3561 344.999 65.3394C347.273 65.3059 348.519 67.1478 346.852 68.8725ZM345.471 68.3366C345.841 67.6502 346.144 65.9088 344.864 66.009C343.382 66.1263 343.668 70.0278 343.668 70.0278C344.157 69.4922 344.898 69.3749 345.471 68.3366ZM321.538 64.6865C322.11 64.6695 322.548 64.2006 322.548 63.6482C322.531 63.0788 322.06 62.6435 321.504 62.6435C320.948 62.6602 320.493 63.1124 320.493 63.665C320.493 64.2341 320.965 64.6862 321.538 64.6862V64.6865ZM331.862 72.8745C331.357 72.8745 330.986 72.3386 330.986 71.8027C330.986 69.6929 332.721 69.3916 333.192 68.839V72.4056C332.974 72.5732 332.771 72.8745 331.862 72.8745H331.862ZM333.192 68.0182C332.67 68.9228 328.595 69.1235 329.218 72.2548C329.47 73.4938 330.296 73.8622 331.34 73.8622C332.35 73.8622 332.974 73.3433 333.226 72.841C333.378 73.7787 333.866 73.8454 333.866 73.8454H336.123C335.584 73.4436 335.247 72.8242 335.247 72.1543V67.3824C335.247 66.2439 333.984 65.3564 332.637 65.3564C331.887 65.3395 331.151 65.5561 330.531 65.9758V67.4494C330.531 67.4494 331.003 66.2774 332.165 66.2774C333.31 66.2774 333.395 66.8465 333.395 67.1314C333.412 67.4327 333.361 67.7507 333.192 68.0188V68.0182ZM351.837 71.5349C351.854 72.1375 351.315 72.9247 350.17 72.9247C348.991 72.9247 348.519 71.7357 348.519 71.7357V73.2428C349.159 73.6446 349.9 73.8454 350.658 73.8454C352.191 73.8454 353.757 72.6901 353.723 71.0657C353.707 70.5328 353.524 70.018 353.201 69.5924C352.679 68.906 351.736 68.4204 350.995 67.9683C350.574 67.7169 350.355 67.2481 350.355 67.0976C350.338 66.8127 350.49 66.2436 351.618 66.2436C352.73 66.2436 353.218 67.4156 353.218 67.4156V65.9923C352.595 65.5569 351.837 65.3226 351.062 65.3226C349.715 65.3226 348.485 66.2101 348.519 67.3486C348.536 68.3534 348.957 68.9898 349.782 69.6092C350.153 69.8745 350.541 70.115 350.944 70.3291C351.584 70.6809 351.82 71.116 351.837 71.5349Z" fill="white"/>
<mask id="mask0_424_3882" style="mask-type:luminance" maskUnits="userSpaceOnUse" x="383" y="53" width="104" height="32">
<path d="M383.768 53.124H486.381V84.8763H383.768V53.124Z" fill="white"/>
</mask>
<g mask="url(#mask0_424_3882)">
<path d="M479.189 75.6253C478.822 75.6253 478.532 75.9163 478.532 76.2807C478.532 76.6454 478.822 76.9358 479.189 76.9358C479.555 76.9358 479.845 76.6454 479.845 76.2807C479.846 76.1945 479.829 76.1089 479.796 76.0292C479.763 75.9494 479.715 75.8769 479.654 75.8159C479.593 75.7549 479.52 75.7067 479.44 75.6739C479.361 75.6412 479.275 75.6246 479.189 75.6252M479.189 76.8356C478.888 76.8356 478.632 76.5901 478.632 76.2807C478.632 75.971 478.888 75.7268 479.189 75.7268C479.488 75.7268 479.744 75.971 479.744 76.2807C479.744 76.59 479.488 76.8356 479.189 76.8356Z" fill="white"/>
<path d="M479.51 76.1074C479.51 75.9531 479.385 75.9179 479.255 75.9179H478.943V76.6349H479.044V76.3038H479.166L479.379 76.6349H479.5L479.284 76.3038C479.412 76.3001 479.51 76.2491 479.51 76.1075M479.166 76.2041H479.044V76.0193H479.235C479.313 76.0193 479.41 76.0323 479.41 76.1056C479.41 76.2199 479.253 76.2042 479.166 76.2042M474.983 76.9451C475.115 76.5862 475.228 76.2206 475.321 75.8498C475.508 75.0752 475.602 74.2813 475.601 73.4846C475.601 73.0186 475.569 72.5575 475.507 72.1038C475.461 72.7649 475.346 73.3443 475.346 73.3443C475.373 73.4316 475.421 73.575 475.443 73.6635L475.443 73.6639C475.373 74.3346 475.246 74.998 475.062 75.6469C474.976 75.3267 474.859 75.0184 474.851 74.9985L474.851 74.9974C474.617 75.6208 474.267 76.3548 473.95 76.9451H474.983Z" fill="white"/>
<path d="M472.817 76.9451H473.414C475.114 74.4345 475.199 72.2094 475.199 71.7831C475.199 70.9778 475.064 70.2378 474.838 69.6519C474.838 69.6519 474.485 68.7413 473.936 67.931C473.996 68.112 474.111 68.4792 474.175 68.807C474.179 68.8289 474.183 68.8482 474.186 68.8661C474.294 69.0464 474.782 69.9068 474.847 70.8529L474.847 70.8557C474.847 70.8557 474.502 70.3728 474.247 70.0677C474.238 70.5876 474.17 71.1081 474.061 71.6107C474.061 71.6107 474.572 72.2023 474.801 72.5838C474.801 72.5838 474.645 73.416 474.312 74.2134C473.973 73.7204 473.54 73.2415 473.54 73.2415C473.286 73.8678 472.966 74.498 472.609 75.0808C472.609 75.0808 473.257 75.8382 473.399 76.0542C473.209 76.3742 473.023 76.6528 472.817 76.9451Z" fill="white"/>
<path d="M470.69 76.9451C471.818 75.6836 472.779 74.1997 473.356 72.6107C473.857 71.2322 474.13 69.5487 473.686 68.0512C473.656 67.9503 473.622 67.8507 473.584 67.7526C473.443 67.3863 473.259 67.0669 473.059 66.816C472.519 66.2121 471.908 65.6757 471.239 65.2185C471.336 65.3427 471.425 65.4729 471.505 65.6085C471.505 65.6085 472.32 66.213 472.793 66.8272C472.186 66.3949 471.843 66.2198 471.798 66.1977C471.796 66.1969 471.795 66.1961 471.793 66.1953C472.024 66.7635 472.093 67.2341 472.093 67.2349C472.093 67.2349 472.813 67.6107 473.462 68.1721C473.551 68.5872 473.588 69.0126 473.582 69.4384C472.929 68.8635 472.173 68.4146 472.173 68.4146C472.159 68.9014 472.091 69.3944 471.984 69.8737C471.984 69.8737 472.698 70.3259 473.394 70.9598C473.394 70.9598 473.195 71.8581 472.872 72.5645C472.205 71.943 471.554 71.4592 471.502 71.4215C471.502 71.4215 471.171 72.2858 470.634 73.1533C471.302 73.7347 471.931 74.3376 471.931 74.3376C471.547 74.9364 471.113 75.5065 470.644 76.0396L470.644 76.0401L469.448 74.8494C468.962 75.4502 468.432 76.0147 467.864 76.5383C467.891 76.5685 468.132 76.8358 468.23 76.9451H470.69Z" fill="white"/>
<path d="M470.997 65.3515C470.92 65.2457 470.832 65.1378 470.732 65.0419C470.644 64.9579 470.558 64.8821 470.468 64.814C469.473 64.0638 467.642 63.6888 467.642 63.6888C467.751 63.7475 467.858 63.8106 467.963 63.8781C467.971 63.8803 468.71 64.0654 469.364 64.3857C469.364 64.3857 468.769 64.2504 468.387 64.1977C468.547 64.3392 468.694 64.4949 468.826 64.6629C468.826 64.6629 470.041 64.8846 470.575 65.1771C470.575 65.1771 470.83 65.4398 471.039 65.9006C470.206 65.5626 469.263 65.3863 469.263 65.3863C469.388 65.6668 469.478 65.9672 469.533 66.2797C469.533 66.2797 470.569 66.5334 471.349 66.9075C471.416 67.2774 471.441 67.6599 471.426 68.0468C470.506 67.5853 469.593 67.2956 469.593 67.2956C469.574 67.6945 469.51 68.1079 469.403 68.5301C469.403 68.5301 470.659 69.091 471.223 69.4317C471.099 69.9304 470.924 70.4189 470.713 70.8892C469.854 70.3306 468.943 69.8338 468.943 69.8338C468.715 70.3828 468.153 71.2819 468.153 71.2819L468.153 71.2822C468.167 71.292 469.103 71.9344 469.821 72.5045C469.464 73.045 469.062 73.564 468.625 74.0575C468.474 73.9132 467.094 72.6884 467.094 72.6884C466.678 73.1712 466.214 73.6416 465.706 74.0918C465.706 74.0918 465.706 74.092 465.707 74.0921L467.037 75.5973C467.037 75.5973 467.037 75.5973 467.037 75.5975L467.037 75.5977C466.174 76.3079 465.314 76.8462 465.314 76.8462L464.204 75.2707C464.204 75.2707 463.424 75.8649 462.106 76.4886V76.9451H466.434C471.265 73.29 472.979 68.0634 470.997 65.3515Z" fill="white"/>
<path d="M468.547 64.8028C467.347 63.1878 465.469 63.4185 464.909 63.4969C464.293 63.5831 463.828 63.7178 463.828 63.7178C463.966 63.7306 464.153 63.7552 464.288 63.782C464.387 63.7586 465.251 63.5618 465.879 63.644L465.88 63.6441C465.419 63.6941 464.79 63.8844 464.724 63.9045C464.724 63.9047 464.723 63.9051 464.723 63.9054L464.725 63.9061C464.747 63.9128 464.929 63.9678 465.161 64.1043C465.229 64.086 466.084 63.8594 466.898 63.8434V63.8436C466.898 63.8436 467.2 63.9772 467.49 64.1763C466.437 64.1723 465.565 64.3744 465.542 64.38C465.676 64.4984 465.795 64.6324 465.898 64.7791C467.052 64.6062 468.048 64.6811 468.048 64.6811C468.048 64.6811 468.183 64.8463 468.244 64.9351C468.321 65.0469 468.399 65.1858 468.46 65.3078C467.283 65.1701 466.156 65.2686 466.155 65.2686C466.233 65.4692 466.285 65.6837 466.314 65.9093C466.444 65.9083 467.442 65.9101 468.713 66.1389C468.753 66.4302 468.757 66.7423 468.725 67.0717C468.509 67.0155 467.466 66.7549 466.328 66.6419C466.305 66.9264 466.251 67.2226 466.168 67.5263C466.295 67.5563 467.701 67.8915 468.489 68.2106C468.474 68.2605 468.458 68.3102 468.441 68.3597C468.329 68.6979 468.188 69.0375 468.021 69.376C467.386 69.0638 465.831 68.4557 465.831 68.4557C465.676 68.8036 465.485 69.1558 465.263 69.5073C465.263 69.5073 466.597 70.2683 467.239 70.6896C466.933 71.1251 466.599 71.5399 466.238 71.9313C465.772 71.5135 464.607 70.6107 464.519 70.5426C464.144 70.99 463.67 71.4605 463.529 71.5996L464.927 73.2029C464.914 73.2145 464.9 73.2263 464.887 73.2382C464.584 73.489 464.258 73.7251 463.983 73.9144C463.744 74.0768 463.546 74.2027 463.478 74.2466C463.462 74.2219 462.546 72.7602 462.409 72.5276C462.309 72.6012 462.208 72.6732 462.106 72.7435V75.7483C462.27 75.669 462.435 75.5869 462.599 75.4996C463.388 75.1114 464.153 74.6188 464.865 74.0498C465.361 73.6554 465.832 73.2284 466.272 72.7717C466.833 72.1959 467.321 71.5927 467.728 70.9815C469.27 68.7053 469.683 66.3321 468.547 64.8028Z" fill="white"/>
<path d="M465.434 64.681C464.863 64.0252 463.912 63.8006 462.807 63.9585C462.777 63.963 462.745 63.9673 462.717 63.972C462.631 63.9867 462.546 64.0035 462.461 64.0224C462.291 64.0621 462.174 64.1011 462.106 64.1275V64.4582C462.214 64.3726 462.325 64.2912 462.44 64.2141C462.66 64.167 462.874 64.1371 463.08 64.1235C462.761 64.3057 462.393 64.5528 462.106 64.7809V65.0355L462.115 65.0413C462.115 65.0413 462.925 64.4002 463.569 64.1239C463.719 64.1343 463.868 64.1561 464.014 64.1893C463.053 64.5972 462.343 65.1031 462.294 65.1386C462.363 65.1811 462.43 65.2284 462.494 65.2801C462.506 65.2722 463.439 64.6892 464.465 64.3397C464.604 64.4033 464.738 64.4825 464.855 64.5722C463.738 64.8861 462.664 65.4467 462.664 65.4467C462.724 65.5173 462.778 65.5936 462.824 65.6747L462.843 65.6671C463.986 65.1777 465.201 64.9268 465.201 64.9268C465.298 65.0607 465.377 65.2073 465.434 65.3625C465.434 65.3625 464.344 65.4872 462.941 65.9371C463.003 66.1308 463.02 66.2766 463.02 66.2779C463.02 66.2779 464.342 65.9821 465.562 65.9493C465.579 66.1452 465.573 66.3651 465.545 66.5906C464.822 66.5526 463.102 66.6442 463.035 66.6495C463.035 66.6495 463.028 66.8972 462.964 67.1304C462.964 67.1304 464.221 67.1708 465.364 67.3841C465.274 67.6616 465.162 67.9315 465.029 68.1914C464.267 67.9626 463.111 67.6846 462.807 67.6148C462.724 67.8173 462.623 68.0122 462.507 68.1971C462.507 68.1971 463.919 68.8136 464.462 69.1153H464.463L464.463 69.1159C464.227 69.4683 463.761 69.9615 463.761 69.9615C463.633 69.8661 463.505 69.7714 463.377 69.6772C463.002 69.4151 462.446 69.0258 462.108 68.7906L462.106 68.7887V69.9571L462.838 70.8131C462.603 71.0025 462.359 71.1797 462.106 71.344V72.0411L462.132 72.0236C462.476 71.7892 462.806 71.5347 463.12 71.2614C465.648 69.0615 466.684 66.1153 465.434 64.6811" fill="white"/>
<path d="M462.105 68.0298C462.751 67.1102 462.845 66.0549 462.278 65.5397C462.224 65.4913 462.166 65.4498 462.105 65.414V68.0298ZM465.632 63.0861C471.361 63.0861 476.023 67.7652 476.023 73.5166C476.023 74.6831 475.826 75.8437 475.444 76.9451H477.995V61.0555H462.105V63.7057L462.118 63.7012C463.244 63.2933 464.433 63.0851 465.632 63.086M455.457 66.1217C455.069 65.7763 454.574 65.5084 453.971 65.318C453.368 65.1278 452.644 65.0326 451.798 65.0326H447.515V72.9639H451.798C453.32 72.9639 454.5 72.6344 455.335 71.9751C456.171 71.3161 456.588 70.3239 456.588 68.9984C456.588 68.4062 456.497 67.8649 456.313 67.375C456.13 66.8849 455.844 66.4672 455.457 66.1217ZM454.024 69.9924C453.935 70.2603 453.793 70.4753 453.595 70.6373C453.398 70.7998 453.142 70.916 452.829 70.9864C452.515 71.057 452.136 71.0921 451.692 71.0921H449.82V66.9043H451.692C452.15 66.9043 452.536 66.9433 452.85 67.0206C453.163 67.0984 453.417 67.2216 453.611 67.3908C453.805 67.56 453.944 67.7767 454.029 68.0411C454.114 68.3057 454.156 68.6246 454.156 68.9984C454.156 69.3931 454.112 69.7244 454.024 69.9925M438.409 69.7068H442.745V68.1522H438.409V66.8411H443.559L443.517 65.0324H436.104V72.9639H443.729L443.771 71.1767H438.409L438.409 69.7068ZM424.397 65.0325L424.334 66.9043H427.369V72.9638H429.685V66.9042H432.72L432.667 65.0325H424.397ZM418.475 72.9639H420.823V65.0325H418.475V72.9639ZM411.961 68.977L411.982 69.8231L411.961 69.8442L411.358 69.2308L407.065 65.0325H405.161V72.9639H407.255V68.7975L407.234 67.9407L407.265 67.9302L407.868 68.5329L412.542 72.9639H414.055V65.0326H411.961V68.977ZM398.784 69.5059C398.784 70.1051 398.615 70.5512 398.276 70.8437C397.938 71.1364 397.395 71.2825 396.648 71.2825C395.893 71.2825 395.34 71.1364 394.988 70.8437C394.635 70.5511 394.459 70.1051 394.459 69.5059V65.0326H392.153V69.4849C392.153 70.7114 392.539 71.6262 393.311 72.2291C394.083 72.8318 395.195 73.1332 396.648 73.1332C398.107 73.1332 399.211 72.8336 399.958 72.2344C400.705 71.6351 401.079 70.7184 401.079 69.4849V65.0326H398.784V69.5059Z" fill="white"/>
</g>
<path d="M528.062 74.3808C528.062 73.9268 528.308 73.857 528.728 74.1014C529.499 74.5204 530.34 74.9744 530.34 74.9744C530.375 74.73 530.586 74.5204 531.041 74.6252C531.462 74.73 531.952 74.8347 531.952 74.8347C531.952 74.8347 531.707 74.2411 531.567 73.9967C531.357 73.5078 531.567 73.2983 531.777 73.2285C531.777 73.2285 531.497 73.0189 531.287 72.8793C530.866 72.5999 530.971 72.2857 531.357 72.1111C531.917 71.8666 532.618 71.5524 532.618 71.5524C532.408 71.4127 532.128 71.0635 532.443 70.6445C532.723 70.2255 533.144 69.6668 533.144 69.6668H531.882C531.427 69.6668 531.322 69.2827 531.322 69.0382C531.322 69.0382 530.586 69.562 530.06 69.9112C529.604 70.2255 529.219 69.9112 529.289 69.3874C529.394 68.5843 529.499 67.6764 529.499 67.6764C529.219 67.851 528.763 67.851 528.553 67.3971C528.202 66.8035 527.817 66.0003 527.817 66.0003C527.817 66.0003 527.467 66.7685 527.151 67.432C526.941 67.8859 526.45 67.8859 526.205 67.7113C526.205 67.7113 526.31 68.6192 526.415 69.4223C526.485 69.9461 526.065 70.2255 525.644 69.9461C525.118 69.5969 524.382 69.0732 524.382 69.0732C524.382 69.3176 524.277 69.7017 523.822 69.7017H522.56C522.56 69.7017 522.981 70.2953 523.261 70.6794C523.541 71.0984 523.296 71.4476 523.086 71.5873C523.086 71.5873 523.787 71.9016 524.347 72.146C524.768 72.3206 524.873 72.5999 524.417 72.9142C524.207 73.0539 523.927 73.2634 523.927 73.2634C524.137 73.3332 524.347 73.5427 524.137 74.0316C524.032 74.276 523.752 74.8696 523.752 74.8696C523.752 74.8696 524.242 74.7649 524.663 74.6601C525.118 74.5554 525.364 74.7649 525.364 75.0093C525.364 75.0093 526.17 74.5554 526.941 74.1363C527.361 73.8919 527.607 73.9967 527.607 74.4157V75.4632C527.607 76.0918 527.502 76.7901 527.256 77.1393C524.242 76.8251 521.754 74.4506 521.754 71.3079C521.754 68.0605 524.488 65.4067 527.817 65.4067C531.181 65.4067 533.88 68.0256 533.88 71.273C533.88 74.3109 531.532 76.7901 528.483 77.1044V77.9075C532.058 77.5933 534.826 74.73 534.826 71.273C534.861 67.6066 531.707 64.6385 527.817 64.6385C523.962 64.6385 520.808 67.6066 520.808 71.3079C520.808 74.5554 523.226 77.2441 526.485 77.8377C527.046 77.9425 527.361 78.0123 527.677 78.3615C528.027 77.7329 528.097 76.406 528.097 75.6378V74.3808H528.062Z" fill="white"/>
<path d="M556.415 74.8696V67.7462H559.884C561.742 67.7462 562.583 68.5144 562.618 69.5271C562.653 69.981 562.548 70.435 562.232 70.7841C561.917 71.1333 561.777 71.273 561.181 71.5524L563.81 74.8696H561.847L559.534 71.9365H557.957V74.8696H556.415ZM557.992 70.9587H558.693C560.62 70.9587 561.006 70.6445 561.006 69.7017C561.006 68.7938 560.165 68.6541 558.903 68.6541H557.957V70.9587H557.992ZM540.749 74.8696L543.868 67.7462H545.761L548.845 74.8696H546.917L546.076 72.9491H542.782L541.941 74.8696H540.749ZM543.202 72.0063H545.691L544.464 69.1779L543.202 72.0063ZM551.088 67.7462H552.77V74.8696H551.088V67.7462ZM575.83 74.6252C575.024 74.9395 574.043 75.0791 572.887 75.0791C571.485 75.0791 570.363 74.7299 569.592 74.0665C568.786 73.403 568.401 72.4602 568.401 71.273C568.401 70.0509 568.786 69.143 569.592 68.4795C570.398 67.8161 571.52 67.5018 572.992 67.5018C573.938 67.5018 574.884 67.6066 575.795 67.7812V68.9335C574.744 68.6192 573.763 68.4795 573.062 68.4795C572.151 68.4795 571.45 68.724 570.959 69.1779C570.468 69.6668 570.223 70.3302 570.223 71.2381C570.223 72.1111 570.468 72.7745 571.029 73.2634C571.555 73.7522 572.291 73.9967 573.237 73.9967C574.078 73.9967 575.024 73.8221 575.866 73.4729V74.6252H575.83ZM577.863 74.8696L580.982 67.7462H582.875L585.959 74.8696H584.031L583.19 72.9491H579.896L579.055 74.8696H577.863ZM580.316 72.0063H582.805L581.578 69.1779L580.316 72.0063ZM598.505 74.8696L601.625 67.7462H603.517L606.601 74.8696H604.674L603.833 72.9491H600.538L599.697 74.8696H598.505ZM600.959 72.0063H603.447L602.22 69.1779L600.959 72.0063ZM618.096 74.8696L621.216 67.7462H623.108L626.192 74.8696H624.265L623.424 72.9491H620.129L619.288 74.8696H618.096ZM620.55 72.0063H623.038L621.811 69.1779L620.55 72.0063ZM590.27 67.7462L594.756 72.8094V67.7462H596.122V74.8696H594.37L589.709 69.5271V74.8696H588.342V67.7462H590.27ZM608.984 74.8696V67.7462H612.454C613.681 67.7462 614.627 68.0605 615.293 68.6192C615.959 69.2128 616.274 70.0509 616.274 71.1333C616.274 72.3206 615.924 73.2284 615.223 73.857C614.522 74.5204 613.54 74.8347 612.279 74.8347H608.984V74.8696ZM610.632 73.857H611.858C612.734 73.857 613.365 73.6475 613.821 73.2284C614.241 72.8094 614.452 72.146 614.487 71.273C614.487 70.6096 614.311 70.0159 613.961 69.562C613.716 69.2477 613.435 69.0382 613.12 68.8985C612.769 68.7938 612.314 68.724 611.648 68.724H610.632V73.857Z" fill="white"/>
<path fill-rule="evenodd" clip-rule="evenodd" d="M681.615 81.2643H744.453L743.206 83.2176H681.615V81.2643Z" fill="white"/>
<path fill-rule="evenodd" clip-rule="evenodd" d="M755.898 80.3793H753.588L758.252 72.9865C758.252 72.9865 758.95 71.4538 758.037 69.8351L751.535 59.0212C751.535 59.0212 750.966 58.0172 751.535 57.0567L753.459 54.164L761.089 66.6836C761.089 66.6836 763.056 69.3062 760.917 72.5547L755.898 80.3793Z" fill="white"/>
<path fill-rule="evenodd" clip-rule="evenodd" d="M761.476 78.1126L764.313 73.7739C764.313 73.7739 765.141 71.9821 767.28 71.9821H770.289L772.384 75.3066C772.384 75.3066 770.729 75.1339 769.988 76.3213L766.893 81.005C766.893 81.005 765.882 83.1961 763.185 83.1961H748.612L754.158 74.6482C754.158 74.6482 754.942 73.6447 753.846 71.9826L748.913 64.0176C748.913 64.0176 747.699 62.8414 748.956 60.8233L750.396 58.6319L757.253 69.7913C757.253 69.7913 758.467 71.3239 757.253 73.1587L752.105 81.2206H762.959C762.959 81.2206 764.184 81.4472 765.238 79.8716L767.935 75.7058C767.935 75.7058 768.547 74.3026 769.902 73.7307H767.72C767.72 73.7307 766.581 73.7739 765.711 75.1336L763.314 78.8572C763.314 78.8572 762.443 80.4328 760.52 80.4328H756.726L761.304 73.2989C761.304 73.2989 763.798 70.0074 762.046 66.9853L754.458 54.38C754.458 54.38 753.889 53.2895 754.544 52.2751L756.199 49.7819L764.84 63.7584C764.84 63.7584 766.108 65.8524 766.108 67.471C766.108 69.0899 765.098 70.9247 764.539 71.8529L760.734 77.8104C760.734 77.8104 760.305 78.3824 760.606 78.5983C760.917 78.8139 761.218 78.4253 761.476 78.1123" fill="white"/>
<path fill-rule="evenodd" clip-rule="evenodd" d="M713.255 72.0473H714.598V77.3897H717.876V78.5338H713.254V72.0473M718.908 78.5338H720.24V72.0473H718.908V78.5338ZM702.551 78.5338H703.873V72.0473H702.551V78.5338ZM729.772 72.0473H734.835V73.1159H731.116V74.7025H734.276V75.8789H731.116V77.4546H734.835V78.5338H729.772V72.0473ZM736.898 63.3273H741.96V64.3956H738.242V65.9713H741.412V67.1477H738.242V68.7233H741.96V69.7917H736.898V63.3273ZM705.925 78.5338V72.0473H709.762C709.762 72.0473 711.61 72.0796 711.61 73.936C711.61 73.936 711.782 75.4794 710.213 76.1052L712.158 78.5336H710.503L707.817 75.1661H709.214C709.214 75.1661 710.213 75.1447 710.213 74.1303C710.213 73.1696 709.407 73.094 709.16 73.094H707.269V78.5336H705.925M729.536 69.7919V63.327H733.373C733.373 63.327 735.221 63.3591 735.221 65.216C735.221 65.216 735.382 66.7479 733.824 67.374L735.769 69.7914H734.115L731.428 66.4461H732.825C732.825 66.4461 733.824 66.4244 733.824 65.4098C733.824 64.4383 733.019 64.3735 732.771 64.3735H730.88V69.7919H729.536ZM702.647 68.6694H704.463V65.7017H705.753V69.7917H702.368C701.863 69.7917 699.423 69.2197 699.402 66.6404C699.38 64.0828 701.605 63.3273 702.465 63.3273H705.785V64.4712H702.787C702.787 64.4712 700.777 64.4712 700.777 66.5971C700.777 68.2483 702.443 68.6692 702.647 68.6692M721.992 72.0473H723.346V73.0513L724.195 72.0476H725.796C725.796 72.0476 727.989 71.9288 727.989 74.2816V78.5338H726.624V74.0762C726.624 74.0762 726.581 73.1912 725.657 73.1912H723.346V78.5336H721.992V72.0473ZM692.18 63.3273H693.523V64.3198L694.372 63.3273H695.974C695.974 63.3273 698.177 63.2085 698.177 65.5611V69.7917H696.811V65.3566C696.811 65.3566 696.758 64.4717 695.834 64.4717H693.523V69.7919H692.18V63.3273ZM688.999 69.7919H690.321V63.3268H688.999V69.7919ZM736.307 78.5232V77.4223H740.047C740.047 77.4223 740.788 77.5624 740.788 76.6558C740.788 75.7495 740.23 75.8466 740.026 75.8466H737.865C737.865 75.8466 736.2 75.9651 736.2 74.0012C736.2 72.0476 737.844 72.0476 737.844 72.0476H741.949V73.1915H738.349C738.349 73.1915 737.564 73.1914 737.564 73.9363C737.564 74.6812 738.091 74.821 738.585 74.821H740.509C740.509 74.821 742.132 74.6483 742.132 76.591C742.132 78.5338 740.466 78.5232 740.466 78.5232H736.307ZM681.755 69.7919V68.6911H685.495C685.495 68.6911 686.237 68.8314 686.237 67.9248C686.237 67.0183 685.678 67.1154 685.474 67.1154H683.313C683.313 67.1154 681.648 67.2339 681.648 65.2806C681.648 63.3164 683.292 63.3273 683.292 63.3273H687.397V64.4712H683.797C683.797 64.4712 683.012 64.4712 683.012 65.216C683.012 65.9601 683.55 66.1007 684.034 66.1007H685.957C685.957 66.1007 687.58 65.9281 687.58 67.8597C687.58 69.8021 685.914 69.7914 685.914 69.7914H681.755" fill="white"/>
<path d="M724.942 62.928C723.005 62.928 721.423 64.5133 721.423 66.4658C721.423 68.4259 723.005 69.9974 724.942 69.9974C725.404 69.9995 725.863 69.9096 726.291 69.7329C726.718 69.5561 727.107 69.2961 727.434 68.9678C727.761 68.6395 728.021 68.2494 728.197 67.82C728.373 67.3906 728.463 66.9303 728.462 66.4658C728.463 66.0011 728.373 65.5406 728.197 65.1109C728.021 64.6812 727.762 64.2908 727.434 63.962C727.107 63.6332 726.719 63.3726 726.291 63.1952C725.863 63.0177 725.405 62.9269 724.942 62.928ZM724.942 68.696C723.727 68.696 722.745 67.7011 722.745 66.4658C722.745 65.2472 723.728 64.2331 724.942 64.2331C726.166 64.2331 727.169 65.2472 727.169 66.4658C727.169 67.7011 726.166 68.696 724.942 68.696ZM711.099 63.327H709.677L706.613 69.7922H708.124L708.939 67.9332H711.858L712.663 69.7922H714.168M709.313 66.981L710.389 64.3341L711.453 66.9745L709.313 66.981ZM698.514 72.0481H697.093L694.029 78.5341H695.539L696.354 76.6691H699.273L700.078 78.5341H701.583M696.728 75.7138L697.805 73.0584L698.869 75.7075L696.728 75.7138ZM718.583 63.327H715.006V69.7922H716.378V66.6526L717.171 67.748H718.583C719.82 67.748 720.649 66.7153 720.649 65.5376C720.649 64.3638 719.82 63.327 718.583 63.327ZM718.534 66.55H716.377V64.5165H718.534C719.018 64.5165 719.349 65.054 719.349 65.54C719.351 66.0405 719.02 66.55 718.534 66.55Z" fill="white"/>
<path d="M835.598 64.5764H842.525C841.454 68.855 840.424 73.1458 839.35 77.4236H825.308V77.29L825.309 77.4207C828.729 73.1321 832.162 68.8528 835.598 64.5764ZM834.821 67.052C834.822 67.9722 834.819 68.8934 834.823 69.8139C833.906 69.8161 832.989 69.8116 832.072 69.8161C832.077 70.6058 832.077 71.3945 832.072 72.1839C832.989 72.1887 833.906 72.1839 834.823 72.1865C834.819 73.1066 834.822 74.0282 834.821 74.9483C835.617 74.9528 836.413 74.9505 837.209 74.9494C837.204 74.0282 837.209 73.1066 837.206 72.1854C838.127 72.1854 839.047 72.1865 839.968 72.1854C839.966 71.3956 839.966 70.6051 839.968 69.8142C839.047 69.8142 838.127 69.8142 837.206 69.8153C837.209 68.8937 837.204 67.9725 837.209 67.0513C836.413 67.0495 835.617 67.0469 834.821 67.052ZM844.788 67.446C845.515 66.8146 846.526 66.6496 847.459 66.6806C848.32 66.7183 849.257 66.9409 849.844 67.6195C850.206 68.0172 850.332 68.5577 850.373 69.0795C849.695 69.085 849.018 69.0828 848.34 69.0806C848.304 68.7073 848.111 68.3196 847.728 68.2059C847.228 68.0637 846.555 68.0848 846.237 68.56C846.006 68.9488 846.25 69.4384 846.636 69.6137C847.718 70.1654 849.057 70.2617 849.945 71.1619C850.8 72.1573 850.623 73.8742 849.573 74.671C848.827 75.2618 847.827 75.3958 846.904 75.3445C846.036 75.2895 845.108 75.0617 844.493 74.4041C844.074 73.9643 843.902 73.3477 843.911 72.7499C844.586 72.7485 845.263 72.7499 845.939 72.7499C845.991 73.0247 846.053 73.3193 846.264 73.5198C846.599 73.8654 847.123 73.9123 847.573 73.8454C848.028 73.7712 848.426 73.3525 848.386 72.8762C848.374 72.5506 848.11 72.3095 847.84 72.1673C846.913 71.6737 845.79 71.6209 844.935 70.9758C843.824 70.1816 843.747 68.3299 844.788 67.446ZM867.609 67.4538C868.305 66.8401 869.272 66.6684 870.172 66.6754C871.042 66.7031 871.992 66.8914 872.614 67.5516C873.014 67.9537 873.169 68.5253 873.204 69.078C872.524 69.0857 871.846 69.0865 871.168 69.078C871.129 68.7269 870.97 68.3525 870.612 68.2284C870.161 68.0733 869.597 68.0766 869.213 68.3901C868.906 68.6419 868.912 69.1444 869.18 69.4221C869.464 69.7149 869.873 69.8223 870.249 69.9416C871.02 70.1787 871.827 70.3891 872.486 70.8776C873.634 71.7161 873.626 73.6176 872.584 74.5392C871.849 75.2134 870.798 75.391 869.833 75.3508C868.933 75.3043 867.955 75.0857 867.321 74.3934C866.901 73.9581 866.738 73.3422 866.736 72.7503C867.414 72.7492 868.094 72.7503 868.772 72.7492C868.83 73.0191 868.878 73.3123 869.089 73.5102C869.479 73.9089 870.119 73.9481 870.623 73.7838C871.172 73.5951 871.446 72.8039 870.984 72.387C870.534 71.9993 869.932 71.8682 869.382 71.6851C868.62 71.4636 867.801 71.1852 867.311 70.5183C866.662 69.61 866.75 68.2022 867.609 67.4538ZM874.987 67.4128C875.815 66.7419 876.947 66.6064 877.977 66.7094C878.764 66.7825 879.597 67.0661 880.092 67.717C880.401 68.1029 880.505 68.6002 880.542 69.0791C879.867 69.0857 879.193 69.078 878.519 69.0835C878.451 68.8376 878.411 68.5574 878.199 68.3879C877.82 68.0733 877.26 68.0755 876.813 68.2262C876.451 68.3451 876.224 68.7571 876.346 69.126C876.466 69.5152 876.869 69.702 877.225 69.826C878.103 70.1233 879.049 70.3105 879.812 70.8695C880.972 71.7025 880.964 73.625 879.914 74.5459C879.201 75.1961 878.188 75.3788 877.252 75.3537C876.366 75.3172 875.413 75.1307 874.75 74.4968C874.272 74.0526 874.062 73.3891 874.071 72.7496C874.748 72.7507 875.424 72.7507 876.1 72.7496C876.154 73.1827 876.381 73.6206 876.813 73.7734C877.332 73.9451 878.025 73.9352 878.38 73.4548C878.669 73.0978 878.589 72.5203 878.188 72.2796C877.212 71.6504 875.933 71.6692 875.022 70.9116C873.967 70.0771 873.946 68.2664 874.987 67.4128ZM850.638 66.8726C851.337 66.8711 852.035 66.8748 852.734 66.8704C853.196 68.7006 853.659 70.5316 854.105 72.3671C854.648 70.5375 855.17 68.7021 855.711 66.8711C856.401 66.8726 857.091 66.8726 857.781 66.8726C858.327 68.6962 858.825 70.5361 859.399 72.3523C859.822 70.5206 860.304 68.7021 860.747 66.8748C861.447 66.8711 862.15 66.8711 862.85 66.8737C862.089 69.62 861.337 72.3689 860.568 75.1123C859.836 75.1112 859.104 75.1097 858.373 75.1123C857.824 73.2388 857.279 71.3624 856.751 69.4816C856.191 71.3532 855.669 73.2373 855.117 75.1112C854.387 75.1123 853.657 75.1064 852.927 75.1145C852.139 72.3748 851.415 69.6152 850.638 66.8726ZM863.67 75.1123C863.663 72.366 863.67 69.6189 863.667 66.8726H865.806C865.803 69.6189 865.81 72.3656 865.802 75.1112C865.092 75.1112 864.381 75.1097 863.67 75.1123Z" fill="white"/>
<mask id="mask1_424_3882" style="mask-type:luminance" maskUnits="userSpaceOnUse" x="148" y="58" width="103" height="19">
<path d="M148.828 58.6088H250.172V76.3912H148.828V58.6088Z" fill="white"/>
</mask>
<g mask="url(#mask1_424_3882)">
<path d="M161.102 65.789C161.036 65.789 160.981 65.7907 160.95 65.7941C160.914 65.8595 160.86 65.9473 160.781 66.0694C162.017 66.0694 163.14 66.1709 164.382 66.3929L164.031 66.7302C162.91 66.5323 161.979 66.4532 160.793 66.4532C160.62 66.4532 160.584 66.4532 160.542 66.4549C160.501 66.5168 160.408 66.6372 160.314 66.7491C160.42 66.7422 160.624 66.7388 160.905 66.7388C161.881 66.7388 162.793 66.811 163.783 66.9693L163.432 67.3083C162.679 67.1913 161.758 67.1242 160.933 67.1242C160.639 67.1242 160.306 67.1345 160.007 67.1517C159.94 67.2291 159.763 67.4184 159.71 67.4769C160.105 67.4356 160.541 67.4167 161.059 67.4167C161.796 67.4167 162.501 67.4649 163.168 67.563L162.817 67.8985C162.342 67.84 161.765 67.8056 161.256 67.8056C159.941 67.8056 158.905 68.0895 157.834 68.7416C158.855 69.8325 160.527 70.5225 162.147 70.5225H162.299L161.732 71.068C159.395 70.6309 156.936 69.6071 154.858 68.2047C152.86 66.8609 152.16 66.4635 150.6 65.777L150.59 65.3777L151.645 65.8286L152.005 65.5446L155.45 67.1173L155.226 67.2962L153.457 66.5306L153.283 66.6665L154.202 67.1775C154.977 67.6078 155.568 67.8004 156.114 67.8004C157.307 67.8004 158.378 66.9573 159.069 65.4758C159.589 65.4087 160.143 65.3777 160.81 65.3777C162.178 65.3777 163.506 65.5085 165.011 65.789L164.645 66.1417C163.708 65.9473 162.118 65.789 161.102 65.789M157.753 75.588C153.27 75.588 149.634 71.9656 149.634 67.4999C149.634 63.0343 153.27 59.4118 157.753 59.4118C162.236 59.4118 165.872 63.0343 165.872 67.4999C165.872 71.9656 162.236 75.588 157.753 75.588ZM157.753 58.8956C152.976 58.8956 149.115 62.7417 149.115 67.4999C149.115 72.2582 152.976 76.1044 157.753 76.1044C162.529 76.1044 166.39 72.2582 166.39 67.4999C166.39 62.7417 162.529 58.8956 157.753 58.8956ZM180.572 70.9254H185.524V73.2362H177.907V61.7637H180.572V70.9254ZM191.513 64.976H193.997V73.2362H191.661V72.2856C191.315 72.9248 190.608 73.482 189.308 73.482C187.186 73.482 186.083 72.5314 186.083 69.8108V64.976H188.568V69.6961C188.568 70.7942 189.045 71.2858 190.048 71.2858C190.953 71.2858 191.513 70.7942 191.513 69.6961L191.513 64.976ZM195.905 64.6647C195.905 62.6652 197.172 61.5998 199.163 61.5998C199.805 61.5998 200.216 61.6982 200.216 61.6982V63.6976C200.216 63.6976 199.87 63.665 199.574 63.665C198.801 63.665 198.389 63.9272 198.389 64.6483V64.976H200.216V66.992H198.389V73.2362H195.905V66.9919H194.655V64.976H195.905V64.6646M204.592 64.976H206.484V66.9919H204.592V70.2042C204.592 71.0892 205.053 71.3186 205.776 71.3186C206.072 71.3186 206.484 71.2695 206.484 71.2695V73.2526C206.484 73.2526 205.908 73.3837 205.299 73.3837C203.309 73.3837 202.108 72.4823 202.108 70.4829V66.9919H200.857V64.976H202.108V62.5668H204.592V64.976ZM211.984 64.7301C214.09 64.7301 215.192 65.6807 215.192 68.4013V73.2362H212.708V68.516C212.708 67.418 212.231 66.9264 211.194 66.9264C210.257 66.9264 209.697 67.418 209.697 68.516V73.2362H207.213V61.7801H209.714V65.7791C210.141 65.1726 210.816 64.7302 211.984 64.7302M221.526 70.0239C221.526 70.9253 220.671 71.5973 219.355 71.5973C218.713 71.5973 218.334 71.3023 218.334 70.745C218.334 70.3189 218.598 69.9584 219.437 69.8437L220.868 69.647C221.115 69.6142 221.378 69.565 221.526 69.5159V70.0239ZM220.144 64.7303C217.693 64.7303 216.508 65.6645 216.41 67.4181H218.828C218.861 66.9592 219.124 66.615 220.144 66.615C221.049 66.615 221.477 66.9101 221.477 67.3525C221.477 67.7459 221.23 67.8934 220.621 67.9589L219.042 68.1228C216.903 68.3522 215.932 69.2373 215.932 70.8435C215.932 72.3349 216.854 73.482 218.812 73.482C220.144 73.482 220.934 73.056 221.625 72.2036V73.2362H223.895V67.8114C223.895 65.5333 222.563 64.7303 220.144 64.7303ZM229.64 64.7303C231.795 64.7303 232.897 65.6807 232.897 68.4014V73.2362H230.413V68.516C230.413 67.418 229.936 66.9264 228.899 66.9264C227.962 66.9264 227.402 67.418 227.402 68.516V73.2362H224.918V64.976H227.254V65.9267C227.6 65.2874 228.307 64.7302 229.64 64.7302M238.138 68.0572C240.244 68.3359 241.297 68.9914 241.297 70.7123C241.297 72.4496 240.063 73.482 237.447 73.482C234.601 73.482 233.597 72.3513 233.548 70.6958H235.999C236.065 71.3023 236.493 71.5973 237.447 71.5973C238.417 71.5973 238.812 71.3679 238.812 70.909C238.812 70.4829 238.483 70.2862 237.628 70.1715L236.756 70.0567C234.93 69.8109 233.877 69.1062 233.877 67.4672C233.877 65.8938 235.045 64.7302 237.496 64.7302C239.767 64.7302 240.984 65.6316 241.099 67.418H238.681C238.598 66.9429 238.335 66.6478 237.496 66.6478C236.674 66.6478 236.361 66.9264 236.361 67.287C236.361 67.6475 236.558 67.8442 237.266 67.9425L238.138 68.0572ZM247.516 70.024C247.516 70.9254 246.66 71.5973 245.344 71.5973C244.702 71.5973 244.324 71.3023 244.324 70.745C244.324 70.3189 244.587 69.9584 245.426 69.8437L246.857 69.647C247.104 69.6143 247.367 69.565 247.516 69.5159L247.516 70.024ZM246.133 64.7303C243.682 64.7303 242.498 65.6644 242.399 67.4181H244.817C244.85 66.9591 245.113 66.6151 246.133 66.6151C247.038 66.6151 247.466 66.91 247.466 67.3525C247.466 67.7459 247.219 67.8933 246.61 67.9589L245.031 68.1228C242.892 68.3523 241.922 69.2373 241.922 70.8434C241.922 72.3349 242.843 73.482 244.801 73.482C246.133 73.482 246.923 73.0559 247.614 72.2036V73.2362H249.885V67.8114C249.885 65.5334 248.552 64.7303 246.133 64.7303Z" fill="white"/>
</g>
<defs>
<linearGradient id="paint0_linear_424_3882" x1="97.0132" y1="64.6758" x2="97.0132" y2="72.1965" gradientUnits="userSpaceOnUse">
<stop offset="0.3352" stop-color="white"/>
</linearGradient>
</defs>
</svg>
