<svg width="101" height="19" viewBox="0 0 101 19" fill="none" xmlns="http://www.w3.org/2000/svg">
<path d="M12.1017 7.789C12.0361 7.789 11.9808 7.79066 11.9498 7.7941C11.9135 7.85951 11.8599 7.94725 11.7804 8.06944C13.0171 8.06944 14.1399 8.17094 15.3817 8.39289L15.0311 8.73015C13.9101 8.53228 12.9792 8.45316 11.7925 8.45316C11.6199 8.45316 11.5836 8.45316 11.5421 8.45486C11.5007 8.51678 11.4074 8.63722 11.3141 8.74909C11.4195 8.74221 11.6233 8.73877 11.9048 8.73877C12.8807 8.73877 13.7927 8.81101 14.7824 8.96934L14.4318 9.3083C13.6787 9.19133 12.7581 9.12419 11.9324 9.12419C11.6388 9.12419 11.3055 9.13451 11.0066 9.15171C10.9393 9.22913 10.7631 9.41842 10.7096 9.47691C11.1051 9.43562 11.5404 9.41668 12.0585 9.41668C12.7961 9.41668 13.5008 9.46489 14.1675 9.56295L13.8169 9.89847C13.3419 9.83998 12.765 9.80558 12.2555 9.80558C10.941 9.80558 9.90467 10.0895 8.83381 10.7416C9.85458 11.8325 11.5266 12.5225 13.1467 12.5225H13.2987L12.7322 13.068C10.3952 12.6309 7.93562 11.6071 5.85777 10.2047C3.85934 8.86092 3.15982 8.46348 1.60013 7.77694L1.58977 7.37772L2.64511 7.82859L3.00438 7.54463L6.4502 9.11731L6.22565 9.29624L4.45697 8.53058L4.28252 8.66649L5.20143 9.17753C5.97701 9.60775 6.56765 9.8004 7.11348 9.8004C8.30699 9.8004 9.37789 8.95728 10.0688 7.47583C10.5887 7.40868 11.1431 7.37772 11.8098 7.37772C13.1778 7.37772 14.506 7.50849 16.0105 7.78896L15.6443 8.14168C14.7081 7.94725 13.1173 7.78896 12.1017 7.78896M8.7526 17.588C4.26984 17.588 0.633519 13.9656 0.633519 9.49993C0.633519 5.03429 4.26984 1.41181 8.7526 1.41181C13.2354 1.41181 16.8717 5.03429 16.8717 9.49993C16.8717 13.9656 13.2354 17.588 8.7526 17.588ZM8.7526 0.89558C3.97619 0.89558 0.115234 4.74171 0.115234 9.49993C0.115234 14.2582 3.97619 18.1044 8.75264 18.1044C13.529 18.1044 17.39 14.2582 17.39 9.49993C17.39 4.74171 13.529 0.89558 8.7526 0.89558ZM31.5716 12.9254H36.5237V15.2362H28.9065V3.76366H31.5716V12.9254ZM42.5123 6.97604H44.9965V15.2362H42.6604V14.2856C42.3148 14.9248 41.6075 15.482 40.3077 15.482C38.1855 15.482 37.0832 14.5314 37.0832 11.8108V6.97599H39.5674V11.696C39.5674 12.7942 40.0446 13.2858 41.0481 13.2858C41.953 13.2858 42.5123 12.7942 42.5123 11.696L42.5123 6.97604ZM46.905 6.66468C46.905 4.66522 48.1719 3.59982 50.1626 3.59982C50.8043 3.59982 51.2155 3.69817 51.2155 3.69817V5.69763C51.2155 5.69763 50.87 5.66497 50.5738 5.66497C49.8006 5.66497 49.3892 5.92723 49.3892 6.64829V6.97604H51.2155V8.99197H49.3892V15.2362H46.905V8.99184H45.6547V6.97595H46.905V6.6646M55.5916 6.97595H57.4835V8.99188H55.5916V12.2042C55.5916 13.0892 56.0523 13.3186 56.7761 13.3186C57.0722 13.3186 57.4835 13.2695 57.4835 13.2695V15.2526C57.4835 15.2526 56.9078 15.3837 56.299 15.3837C54.3084 15.3837 53.1074 14.4823 53.1074 12.4829V8.99188H51.857V6.97599H53.1074V4.56679H55.5916V6.97595ZM62.9837 6.73012C65.0896 6.73012 66.192 7.68066 66.192 10.4013V15.2362H63.7076V10.516C63.7076 9.41802 63.2305 8.9264 62.1941 8.9264C61.2563 8.9264 60.6969 9.41802 60.6969 10.516V15.2362H58.2127V3.78009H60.7134V7.77905C61.1412 7.17261 61.8157 6.73016 62.9837 6.73016M72.5259 12.0239C72.5259 12.9253 71.6704 13.5973 70.3543 13.5973C69.7125 13.5973 69.3342 13.3023 69.3342 12.745C69.3342 12.3189 69.5975 11.9584 70.4365 11.8437L71.8679 11.647C72.1146 11.6142 72.3779 11.565 72.5259 11.5159V12.0239ZM71.144 6.73025C68.6926 6.73025 67.5081 7.66447 67.4094 9.4181H69.8278C69.8607 8.95914 70.124 8.61496 71.144 8.61496C72.0488 8.61496 72.4766 8.91005 72.4766 9.35245C72.4766 9.74593 72.2297 9.89337 71.6211 9.95889L70.0417 10.1228C67.9029 10.3522 66.9322 11.2373 66.9322 12.8435C66.9322 14.3349 67.8536 15.482 69.8113 15.482C71.144 15.482 71.9337 15.0559 72.6247 14.2036V15.2362H74.8951V9.81141C74.8951 7.5333 73.5625 6.73025 71.144 6.73025ZM80.6395 6.73025C82.7948 6.73025 83.8971 7.68074 83.8971 10.4014V15.2362H81.4127V10.516C81.4127 9.41802 80.9356 8.9264 79.8991 8.9264C78.9613 8.9264 78.402 9.41802 78.402 10.516V15.2362H75.9178V6.97604H78.2539V7.92665C78.5994 7.28739 79.3068 6.73016 80.6394 6.73016M89.1376 10.0572C91.2434 10.3359 92.2964 10.9914 92.2964 12.7123C92.2964 14.4495 91.0625 15.482 88.4466 15.482C85.6004 15.482 84.5968 14.3513 84.5475 12.6958H86.9987C87.0647 13.3023 87.4923 13.5973 88.4466 13.5973C89.4172 13.5973 89.8121 13.3678 89.8121 12.909C89.8121 12.4829 89.4831 12.2862 88.6276 12.1715L87.7555 12.0567C85.9294 11.8109 84.8765 11.1062 84.8765 9.46723C84.8765 7.89383 86.0446 6.73016 88.496 6.73016C90.7663 6.73016 91.9838 7.63157 92.0989 9.41802H89.6804C89.5982 8.94287 89.3349 8.64775 88.496 8.64775C87.6733 8.64775 87.3608 8.9264 87.3608 9.28701C87.3608 9.64746 87.5582 9.84415 88.2656 9.94254L89.1376 10.0572ZM98.5153 12.024C98.5153 12.9254 97.6595 13.5973 96.3435 13.5973C95.7019 13.5973 95.3234 13.3023 95.3234 12.745C95.3234 12.3189 95.5867 11.9584 96.4257 11.8437L97.8572 11.647C98.1038 11.6143 98.3671 11.565 98.5153 11.5159L98.5153 12.024ZM97.1331 6.73025C94.6819 6.73025 93.4973 7.66443 93.3987 9.41806H95.8171C95.85 8.9591 96.1132 8.61509 97.1331 8.61509C98.0381 8.61509 98.4658 8.91001 98.4658 9.35253C98.4658 9.74593 98.2191 9.89333 97.6103 9.95885L96.031 10.1228C93.8922 10.3522 92.9214 11.2373 92.9214 12.8434C92.9214 14.3349 93.8428 15.482 95.8006 15.482C97.1332 15.482 97.923 15.0559 98.6138 14.2036V15.2362H100.884V9.81141C100.884 7.53342 99.5516 6.73025 97.1331 6.73025Z" fill="white"/>
</svg>
