<svg width="40" height="40" viewBox="0 0 40 40" fill="none" xmlns="http://www.w3.org/2000/svg">
<path d="M17.7988 5.0752C15.4345 5.0752 13.1233 5.77629 11.1575 7.08982C9.19165 8.40336 7.65946 10.2703 6.75468 12.4547C5.84991 14.639 5.61318 17.0426 6.07443 19.3614C6.53568 21.6803 7.6742 23.8103 9.34601 25.4821C11.0178 27.1539 13.1478 28.2925 15.4667 28.7537C17.7856 29.215 20.1891 28.9782 22.3735 28.0734C24.5578 27.1687 26.4248 25.6365 27.7383 23.6706C29.0518 21.7048 29.7529 19.3936 29.7529 17.0293C29.7527 13.8589 28.4932 10.8185 26.2514 8.57669C24.0097 6.33491 20.9692 5.0754 17.7988 5.0752V5.0752Z" stroke="white" stroke-width="1.35913" stroke-miterlimit="10"/>
<path d="M26.7175 25.948L35.0661 34.2966" stroke="white" stroke-width="1.35913" stroke-miterlimit="10" stroke-linecap="round"/>
</svg>
