<svg width="56" height="14" viewBox="0 0 56 14" fill="none" xmlns="http://www.w3.org/2000/svg">
<path d="M10.5976 0.576416H17.5247C16.4539 4.85501 15.4241 9.1458 14.35 13.4237H0.307617V13.29L0.308725 13.4207C3.72924 9.13213 7.16194 4.8528 10.5976 0.576416ZM9.82074 3.05208C9.82222 3.97219 9.81853 4.89341 9.82296 5.8139C8.90617 5.81611 7.98901 5.81168 7.07185 5.81611C7.07665 6.60589 7.07665 7.39455 7.07185 8.18396C7.98901 8.18876 8.90617 8.18396 9.82296 8.18655C9.81853 9.10666 9.82222 10.0282 9.82074 10.9484C10.6172 10.9528 11.4125 10.9506 12.2085 10.9495C12.2041 10.0282 12.2085 9.10666 12.2063 8.18544C13.1268 8.18544 14.0469 8.18655 14.9678 8.18544C14.9663 7.39566 14.9663 6.60515 14.9678 5.81426C14.0473 5.81426 13.1272 5.81426 12.2063 5.81537C12.2085 4.89378 12.2041 3.97256 12.2085 3.05134C11.4125 3.0495 10.6168 3.04691 9.82074 3.05208ZM19.7884 3.44605C20.5154 2.81467 21.5263 2.64962 22.4586 2.68064C23.3204 2.7183 24.2571 2.94094 24.8442 3.61958C25.206 4.01724 25.3316 4.55779 25.3726 5.0795C24.6947 5.08504 24.0182 5.08283 23.3403 5.08061C23.3038 4.70732 23.1111 4.31964 22.7278 4.20591C22.2282 4.06376 21.5548 4.08481 21.2372 4.56C21.0057 4.9488 21.2502 5.43839 21.6356 5.61377C22.7178 6.1654 24.057 6.26177 24.9446 7.16194C25.7998 8.15738 25.6225 9.87428 24.5725 10.6711C23.8266 11.2618 22.8271 11.3959 21.9041 11.3445C21.0356 11.2895 20.1081 11.0617 19.4934 10.4041C19.0736 9.96437 18.9019 9.34776 18.9107 8.74998C19.5864 8.74851 20.2632 8.74998 20.9385 8.74998C20.9906 9.02469 21.0526 9.31933 21.2642 9.51982C21.5987 9.86542 22.1226 9.91231 22.5731 9.84548C23.0283 9.77127 23.426 9.35256 23.3861 8.87626C23.3739 8.5506 23.1103 8.3095 22.84 8.16735C21.9125 7.67369 20.7897 7.62089 19.9346 6.97585C18.8243 6.18165 18.7464 4.32997 19.7884 3.44605ZM42.6084 3.4538C43.3044 2.84014 44.2722 2.66845 45.172 2.67547C46.0422 2.70316 46.9923 2.89147 47.6144 3.55164C48.0139 3.95373 48.169 4.52529 48.2037 5.07803C47.5243 5.08578 46.8464 5.08652 46.1678 5.07803C46.1294 4.72689 45.9695 4.3525 45.6117 4.22844C45.1609 4.07336 44.5971 4.07668 44.2127 4.39016C43.9063 4.64197 43.9114 5.14449 44.1795 5.42215C44.4642 5.71494 44.8733 5.82239 45.2488 5.94165C46.0197 6.17869 46.8272 6.38915 47.4859 6.87764C48.6338 7.71615 48.6261 9.61767 47.5841 10.5393C46.8486 11.2135 45.7978 11.3911 44.833 11.3508C43.9328 11.3043 42.9551 11.0857 42.3212 10.3934C41.9014 9.95809 41.7378 9.34223 41.7363 8.75035C42.4142 8.74925 43.0936 8.75035 43.7715 8.74925C43.8298 9.01915 43.8775 9.31232 44.0887 9.51022C44.4789 9.90899 45.1192 9.94813 45.6224 9.78382C46.1718 9.59515 46.4458 8.80389 45.9843 8.38704C45.5334 7.99935 44.932 7.86827 44.3818 7.68514C43.6197 7.4636 42.8004 7.1852 42.3108 6.51838C41.6617 5.61008 41.7504 4.20222 42.6084 3.4538ZM49.9874 3.41281C50.8145 2.74193 51.9469 2.60642 52.9767 2.70944C53.7642 2.78254 54.5965 3.06611 55.092 3.71706C55.4014 4.1029 55.5051 4.60025 55.5421 5.07913C54.8671 5.08578 54.1929 5.07803 53.5187 5.08357C53.4508 4.83766 53.4105 4.55742 53.1986 4.38794C52.8201 4.07336 52.2596 4.07558 51.8133 4.22622C51.4514 4.34511 51.224 4.75717 51.3458 5.12603C51.4662 5.51519 51.8694 5.70202 52.2249 5.82608C53.1033 6.12331 54.0493 6.31051 54.8117 6.86951C55.9722 7.70249 55.9641 9.62505 54.914 10.5459C54.2007 11.1961 53.1883 11.3789 52.2523 11.3538C51.3661 11.3172 50.4128 11.1308 49.75 10.4968C49.2719 10.0526 49.0621 9.38912 49.0714 8.74962C49.7478 8.75072 50.4242 8.75072 51.0999 8.74962C51.1534 9.18272 51.3805 9.62062 51.8133 9.77348C52.3316 9.94517 53.0247 9.9352 53.3795 9.45484C53.6694 9.0978 53.5885 8.52033 53.1875 8.27959C52.2116 7.65043 50.9326 7.66926 50.0218 6.91161C48.9669 6.07715 48.9455 4.26647 49.9874 3.41281ZM25.6377 2.87264C26.3366 2.87116 27.0352 2.87485 27.7341 2.87042C28.1964 4.70068 28.6594 6.53167 29.1051 8.3671C29.6475 6.53758 30.1703 4.70215 30.7112 2.87116C31.4006 2.87264 32.0906 2.87264 32.7807 2.87264C33.3268 4.69625 33.8249 6.5361 34.399 8.35233C34.8222 6.5206 35.304 4.70215 35.7467 2.87485C36.4468 2.87116 37.1502 2.87116 37.8502 2.87374C37.0889 5.62005 36.3371 8.36894 35.5676 11.1123C34.8358 11.1112 34.1044 11.1097 33.3726 11.1123C32.8239 9.23884 32.2793 7.36243 31.7513 5.48159C31.1908 7.3532 30.6688 9.23736 30.1171 11.1112C29.3872 11.1123 28.6568 11.1064 27.9265 11.1145C27.1389 8.37485 26.4149 5.61525 25.6377 2.87264ZM38.6703 11.1123C38.6625 8.36599 38.6695 5.61894 38.6673 2.87264H40.8055C40.8033 5.61894 40.8099 8.36562 40.8018 11.1112C40.0918 11.1112 39.3807 11.1097 38.6703 11.1123Z" fill="white"/>
</svg>
