<svg width="19" height="18" viewBox="0 0 19 18" fill="none" xmlns="http://www.w3.org/2000/svg">
<path d="M7.49029 9.19386C8.23348 6.40188 7.38587 3.47615 5.35854 1.92577C2.59701 3.6739 1.00456 6.96099 1.57972 10.3857C1.76928 11.5178 2.17978 12.5582 2.75778 13.4699C4.91707 12.8688 6.8156 11.7306 7.49023 9.19386M11.2177 17.251C15.7757 16.4857 18.8489 12.1704 18.0831 7.61409C17.4461 3.82152 14.354 1.05768 10.7078 0.675847C9.97178 0.598569 9.21148 0.619507 8.44451 0.747709C7.56106 0.895615 6.70729 1.18518 5.91613 1.60523C9.93307 2.96783 12.093 5.03875 12.2427 7.16106C12.3162 8.47115 11.7073 9.41876 10.9072 10.1912L16.5874 9.79452C16.7481 9.78342 16.7984 9.97074 16.6039 10.0266L3.05559 13.9109C4.43471 15.8106 6.57637 17.0742 8.95508 17.3229C9.70906 17.4018 10.4703 17.3777 11.2177 17.2511M10.7602 0.176908C15.222 0.641633 18.7019 4.41214 18.7036 8.99664C18.7052 13.8955 14.7347 17.8688 9.83525 17.8705C4.93589 17.8721 0.963078 13.9021 0.961426 9.00265C0.959775 4.10336 4.92982 0.130013 9.82924 0.128296C10.143 0.128296 10.4541 0.145469 10.7602 0.176908Z" fill="white"/>
</svg>
