<svg width="92" height="8" viewBox="0 0 92 8" fill="none" xmlns="http://www.w3.org/2000/svg">
<path d="M41.6509 7.47979V4.56292H38.7263V7.47979H37.1212V0.532043H38.7263V3.29978H41.6509V0.53211H43.2682V7.47979H41.6509ZM7.05397 0.53211V4.88174C7.05397 5.36245 7.12464 5.77849 7.26447 6.11667C7.40318 6.45206 7.6043 6.73106 7.86235 6.94545C8.12259 7.1621 8.43698 7.32174 8.79563 7.42009C9.16022 7.52068 9.57191 7.572 10.0189 7.572C10.4654 7.572 10.8732 7.52068 11.2301 7.42009C11.5815 7.32174 11.881 7.16263 12.1214 6.9477C12.3611 6.7333 12.5496 6.45431 12.6811 6.11832C12.8137 5.78127 12.88 5.36522 12.88 4.88174V0.53211H11.3782V4.83524C11.3782 5.27348 11.2693 5.62763 11.0549 5.88734C10.8356 6.152 10.4869 6.28628 10.0189 6.28628C9.55864 6.28628 9.21274 6.15253 8.98955 5.88846C8.77073 5.62928 8.65964 5.27513 8.65964 4.8353V0.53211H7.05397ZM2.42363 7.48085V1.82945H0.536133V0.532176H5.92789V1.15436C5.92789 1.52675 5.62565 1.82952 5.25319 1.82952H4.0293V7.48092L2.42363 7.48085ZM28.2258 0.531515H29.8315V7.47927H28.2258V0.531515ZM22.8788 4.23967L22.9329 4.30876L24.984 6.95153C25.2448 7.28805 25.6387 7.48145 26.0648 7.48145H27.3433L24.4049 3.74403L24.3619 3.68875L24.4049 3.63406L26.8206 0.529335H25.1498L22.9346 3.52409L22.8788 3.59648L22.8783 3.47105V0.529335H21.2726V7.47755H22.8783V4.36345L22.8788 4.23967ZM15.9687 3.712H16.9047C17.2418 3.712 17.4987 3.61913 17.6677 3.43736C17.8352 3.25725 17.9203 3.02297 17.9203 2.74173C17.9203 2.45329 17.8374 2.21624 17.6744 2.03612C17.5086 1.85264 17.25 1.76037 16.9047 1.76037H15.9687V3.712ZM19.1795 7.47867C18.7038 7.47867 18.2556 7.22617 18.0098 6.8195L16.7605 4.75684H15.9687V7.47867H14.3641V0.53211H17.2252C17.9601 0.53211 18.5358 0.723851 18.9359 1.10231C19.3348 1.47972 19.537 1.99689 19.537 2.63896C19.537 2.96491 19.4503 3.29536 19.279 3.62078C19.1099 3.94073 18.8105 4.20268 18.3877 4.39885L18.2949 4.44191L20.2443 7.47867H19.1795ZM31.1492 7.18469V5.85247C31.6604 6.08793 32.319 6.32274 32.9998 6.32274C33.7832 6.32274 34.1805 6.05418 34.1805 5.53926C34.1805 4.93477 33.6473 4.86787 32.5798 4.40876C31.8533 4.08445 31.1609 3.58049 31.1609 2.41683C31.1609 1.06255 32.1942 0.424316 33.6247 0.424316C34.385 0.424316 35.0326 0.603311 35.3956 0.737656V2.03612C35.0326 1.86816 34.385 1.66644 33.7379 1.66644C33.034 1.66644 32.7047 1.92397 32.7047 2.37152C32.7047 2.84173 33.1025 2.98757 33.8175 3.25612C34.7369 3.71471 35.8045 3.91642 35.8045 5.48345C35.8045 6.83773 34.7259 7.57649 33.2838 7.57649C32.398 7.57649 31.6946 7.41956 31.1492 7.18469ZM80.7434 7.47927V0.53092H85.094V1.16136C85.094 1.52939 84.7946 1.82827 84.4272 1.82827H82.3491V3.32297H84.6824V4.48273H82.3491V6.18232H85.0941V7.47914L80.7434 7.47927ZM64.8699 7.47861V0.531053H65.6501C66.1049 0.531053 66.4751 0.901261 66.4751 1.35601V6.22717H69.0378V7.47874L64.8699 7.47861ZM54.9313 7.47755V0.534289H56.537L56.5365 7.47755H54.9313ZM59.6141 3.71088H60.5501C60.8871 3.71088 61.1435 3.6186 61.3132 3.43677C61.4806 3.25612 61.5657 3.02238 61.5657 2.74061C61.5657 2.45276 61.4828 2.21512 61.3193 2.035C61.154 1.85211 60.8949 1.75931 60.5501 1.75931H59.6142L59.6141 3.71088ZM62.8249 7.47755C62.3492 7.47755 61.9005 7.22504 61.6546 6.8189L60.4059 4.75631H59.6141V7.47755H58.0095V0.531515H60.8701C61.6055 0.531515 62.1807 0.723257 62.5812 1.10179C62.9802 1.47913 63.1824 1.99636 63.1824 2.63836C63.1824 2.96438 63.0957 3.29483 62.9238 3.62026C62.7553 3.93961 62.4553 4.20149 62.0332 4.39825L61.9403 4.44132L63.8897 7.47762L62.8249 7.47755ZM49.4131 4.94746L50.0435 3.19146C50.1833 2.79642 50.3236 2.37925 50.417 2.07205H50.4402C50.522 2.39028 50.6623 2.78539 50.8022 3.19146L51.4094 4.94746H49.4131ZM51.3967 0.530458H49.5528L46.9327 7.47867H48.0892C48.3831 7.47867 48.6423 7.29136 48.734 7.01289L49.003 6.19731H51.821L52.2332 7.47867H53.9726L51.3967 0.530458ZM86.3837 7.18469V5.85313C86.8943 6.08793 87.5529 6.32274 88.2342 6.32274C89.0177 6.32274 89.415 6.05418 89.415 5.53926C89.415 4.93477 88.8813 4.86787 87.8143 4.40928C87.0877 4.08439 86.3948 3.58102 86.3948 2.41683C86.3948 1.06255 87.428 0.424316 88.8586 0.424316C89.6194 0.424316 90.2664 0.603311 90.6301 0.737656V2.03612C90.2664 1.86869 89.6194 1.66704 88.9724 1.66704C88.2684 1.66704 87.9391 1.9245 87.9391 2.37205C87.9391 2.84166 88.3364 2.98763 89.0514 3.25612C89.9714 3.71471 91.0384 3.91642 91.0384 5.48345C91.0384 6.83773 89.9598 7.57649 88.5182 7.57649C87.6325 7.57649 86.9286 7.41956 86.3837 7.18469ZM73.1465 0.53211H74.1416C74.614 0.53211 75.0533 0.775766 75.3031 1.17689L77.2408 4.28993C77.4596 4.63583 77.7132 5.09276 77.8635 5.41608H77.8977C77.8746 5.10386 77.8635 4.66899 77.8635 4.35677V0.532176H79.2702V7.47927H77.5099L75.1533 3.72092C74.934 3.37554 74.7035 2.9628 74.5416 2.65058H74.519C74.5305 2.95177 74.5532 3.3087 74.5532 3.64298V7.47927H73.1465V0.53211ZM70.071 7.47755V0.534289H71.6761V7.47755H70.071Z" fill="white"/>
</svg>
