<svg width="86" height="16" viewBox="0 0 86 16" fill="none" xmlns="http://www.w3.org/2000/svg">
<path d="M70.1053 7.02988C70.7511 6.11031 70.8446 5.05494 70.2775 4.53975C70.2241 4.49136 70.1663 4.4499 70.1053 4.4141V7.02988ZM73.6316 2.0862C79.3613 2.0862 84.0229 6.76531 84.0229 12.5167C84.0229 13.6831 83.8256 14.8438 83.4439 15.9452H85.9946V0.0555578H70.105V2.70578L70.1174 2.70129C71.2441 2.29334 72.4333 2.08515 73.6316 2.0861M63.4565 5.12177C63.0687 4.77642 62.5735 4.50843 61.9708 4.3181C61.3679 4.12786 60.6437 4.03265 59.7976 4.03265H55.5145V11.964H59.7976C61.3203 11.964 62.4996 11.6345 63.3349 10.9752C64.1705 10.3162 64.5882 9.32393 64.5882 7.99842C64.5882 7.40625 64.4965 6.86501 64.3131 6.37508C64.1297 5.88496 63.8442 5.46732 63.4565 5.12177M62.0236 8.99243C61.9353 9.26042 61.7927 9.47533 61.5953 9.63737C61.3978 9.7999 61.1421 9.91609 60.8285 9.98643C60.5148 10.0571 60.1358 10.0922 59.6918 10.0922H57.82V5.90437H59.6917C60.1499 5.90437 60.5358 5.94339 60.8497 6.02066C61.1632 6.09851 61.4171 6.22162 61.611 6.39089C61.8048 6.56005 61.9442 6.77682 62.0289 7.0412C62.1135 7.30577 62.1556 7.62468 62.1556 7.99842C62.1556 8.39314 62.1114 8.72444 62.0235 8.99253M46.4092 8.70688H50.745V7.15231H46.4092V5.84115H51.5592L51.5171 4.03245H44.1036V11.964H51.7285L51.7708 10.1768H46.4091L46.4092 8.70688ZM32.3971 4.03255L32.3338 5.90437H35.3688V11.9639H37.6848V5.90427H40.7198L40.6671 4.03255H32.3971ZM26.4751 11.964H28.8228V4.03255H26.4751V11.964ZM19.9606 7.97706L19.9819 8.82317L19.9606 8.84424L19.3577 8.2309L15.0645 4.03255H13.1608V11.964H15.2547V7.79755L15.2337 6.94081L15.2652 6.93028L15.8681 7.53298L20.5423 11.964H22.0547V4.03265H19.9606V7.97706ZM6.78395 8.50601C6.78395 9.1052 6.61469 9.55123 6.27636 9.8438C5.93804 10.1365 5.39494 10.2826 4.64775 10.2826C3.89335 10.2826 3.33991 10.1365 2.98744 9.8438C2.63477 9.55113 2.45858 9.1052 2.45858 8.50601V4.03265H0.15332V8.48494C0.15332 9.71152 0.539255 10.6263 1.31132 11.2292C2.08328 11.8319 3.19533 12.1333 4.64775 12.1333C6.10701 12.1333 7.21047 11.8337 7.95785 11.2345C8.70504 10.6352 9.07887 9.71844 9.07887 8.48494V4.03265H6.78395V8.50601Z" fill="white"/>
</svg>
